<svg xmlns="http://www.w3.org/2000/svg" enable-background="new 0 0 3500 2500" viewBox="0 0 3500 2500" id="Workingarea"><rect width="3500" height="1641.445" fill="#f2e7e7" class="colorf2e8e7 svgShape"></rect><rect width="3500" height="73.364" y="1554.5" fill="#ead8d8" class="coloread9d8 svgShape"></rect><rect width="3500" height="872.136" y="1627.865" fill="#938989" class="color938e89 svgShape"></rect><rect width="1191.376" height="1275.676" x="1299.838" fill="#ead8d8" class="coloread9d8 svgShape"></rect><rect width="1085.402" height="1198.828" x="1352.828" fill="#f7dede" class="colordeecf7 svgShape"></rect><path fill="#fff8f8" d="M2030.056 371.915c59.198.433 172.726-.321 234.162-.8 32.195-.251 43.51-43.664 15.072-58.758-5.122-2.719-11.217-4.188-18.469-3.801-43.514 2.325-62.503 31.714-62.503 31.714s-18.428-38.365-83.899-31.775c-42.572 4.285-46.964 44.228-46.964 44.228l-38.533 9.201C2023.104 363.313 2024.074 371.872 2030.056 371.915zM1407.093 165.621c59.198.433 172.726-.321 234.163-.8 32.195-.251 43.51-43.664 15.072-58.758-5.122-2.719-11.217-4.188-18.469-3.801-43.514 2.325-62.503 31.713-62.503 31.713s-18.428-38.365-83.899-31.775c-42.572 4.285-46.964 44.228-46.964 44.228l-38.533 9.201C1400.141 157.019 1401.111 165.578 1407.093 165.621zM2169.494 153.516c22.246 0 44.491 0 66.737 0 29.621 0 59.242 0 88.863 0 26.252-8.307 43.32-29.717 39.352-47.904-3.145-14.414-32.332-43.613-60.792-38.104-36.031 6.974-18.988 17.52-37.038 21.151 0 0-57.106-52.532-126.583-8.595-10.074 6.37-26.252 15.866-38.614 44.396 0 0-96.532-40.68-96.532 0C2004.886 165.138 2169.494 153.516 2169.494 153.516z" class="colorf8feff svgShape"></path><g fill="#000000" class="color000000 svgShape"><rect width="250.413" height="889.574" x="2169.494" y="300.229" fill="#f7d0d0" class="colord0dcf7 svgShape"></rect><rect width="172.741" height="66.258" x="2247.166" y="240.869" fill="#f7d0d0" class="colord0dcf7 svgShape"></rect><rect width="200.256" height="568.463" x="1373.475" y="621.339" fill="#f7d0d0" class="colord0dcf7 svgShape"></rect><rect width="159.6" height="654.188" x="1377.724" y="193.5" fill="#f7d0d0" class="colord0dcf7 svgShape"></rect><path fill="#f2bebe" d="M2195.432,600.788l-129.799-182.143l-99.284,182.143v177.517h-55.376v-98.1h-192.066v99.853
					h-200.011v412.476c0,0,775.805-14.809,775.805,0c0,14.809,0-591.746,0-591.746H2195.432z" class="colorbecdf2 svgShape"></path></g><g fill="#000000" class="color000000 svgShape"><polygon fill="#fcf7f7" points="2468.712 1240.581 1330.9 1240.581 1330.9 0 1361.909 0 1361.909 1174.205 2437.703 1174.205 2437.703 0 2468.712 0" class="colorf7fcfc svgShape"></polygon><polygon fill="#fff8f8" points="2449.89 1219.714 1349.722 1219.714 1349.722 0 1379.704 0 1379.704 1155.534 2419.907 1155.534 2419.907 0 2449.89 0" class="colorf8feff svgShape"></polygon><rect width="1070.186" height="31.104" x="1364.713" y="877.465" fill="#fff8f8" class="colorf8feff svgShape"></rect><rect width="1070.186" height="31.104" x="1364.713" y="547.913" fill="#fff8f8" class="colorf8feff svgShape"></rect><rect width="23.32" height="1187.624" x="1888.146" fill="#fff8f8" class="colorf8feff svgShape"></rect></g><g fill="#000000" class="color000000 svgShape"><rect width="362.789" height="420.045" x="2898.66" y="471.329" fill="#ead8d8" class="coloread9d8 svgShape"></rect><rect width="308.877" height="356.86" x="2924.786" y="502.921" fill="#fff8f8" class="colorfff8ff svgShape"></rect><path fill="#d8c3c3" d="M3102.25,517.5h-46.052c-13.945,0-25.25-11.305-25.25-25.25v-22.289
			c0-4.44,3.599-8.039,8.039-8.039h80.473c4.44,0,8.04,3.599,8.04,8.039v22.289C3127.5,506.195,3116.195,517.5,3102.25,517.5z" class="colord8c4c3 svgShape"></path><rect width="215.5" height="19" x="2951.5" y="540.5" fill="#ead8d8" class="coloread9d8 svgShape"></rect><rect width="171" height="19" x="2951.5" y="573.5" fill="#ead8d8" class="coloread9d8 svgShape"></rect><rect width="32.75" height="19" x="3134.25" y="573.5" fill="#ead8d8" class="coloread9d8 svgShape"></rect><rect width="103" height="19" x="2951.5" y="606.5" fill="#ead8d8" class="coloread9d8 svgShape"></rect><rect width="103" height="141.82" x="2951.5" y="643.998" fill="#ead8d8" class="coloread9d8 svgShape"></rect><rect width="100.75" height="19" x="3066.25" y="606.5" fill="#ead8d8" class="coloread9d8 svgShape"></rect><rect width="255.722" height="19" x="2951.5" y="797.737" fill="#ead8d8" class="coloread9d8 svgShape"></rect><rect width="171" height="19" x="2951.5" y="830.737" fill="#ead8d8" class="coloread9d8 svgShape"></rect><rect width="38.863" height="19" x="3168.36" y="830.737" fill="#ead8d8" class="coloread9d8 svgShape"></rect><rect width="142.25" height="19" x="3066.25" y="643.998" fill="#ead8d8" class="coloread9d8 svgShape"></rect><rect width="142.25" height="19" x="3066.25" y="674.498" fill="#ead8d8" class="coloread9d8 svgShape"></rect><rect width="97.25" height="19" x="3066.25" y="735.831" fill="#ead8d8" class="coloread9d8 svgShape"></rect><rect width="33.333" height="19" x="3175.167" y="735.831" fill="#ead8d8" class="coloread9d8 svgShape"></rect><rect width="142.25" height="19" x="3066.25" y="766.818" fill="#ead8d8" class="coloread9d8 svgShape"></rect><rect width="64.917" height="19" x="3066.25" y="706.165" fill="#ead8d8" class="coloread9d8 svgShape"></rect><rect width="64.917" height="19" x="3143.583" y="706.165" fill="#ead8d8" class="coloread9d8 svgShape"></rect></g><g fill="#000000" class="color000000 svgShape"><circle cx="3080.054" cy="264.477" r="93.386" fill="#7c5555" transform="rotate(-45.001 3080.066 264.514)" class="color55677c svgShape"></circle><circle cx="3080.054" cy="264.477" r="78.035" fill="#fff8f8" class="colorfff8ff svgShape"></circle><path fill="#7c5555" d="M3079.084,274.842l-9.395-9.395c-0.536-0.536-0.536-1.405,0-1.941l45.643-45.643
				c0.536-0.536,1.405-0.536,1.941,0l9.395,9.395c0.536,0.536,0.536,1.405,0,1.941l-45.643,45.643
				C3080.489,275.378,3079.62,275.378,3079.084,274.842z" class="color55677c svgShape"></path><path fill="#7c5555" d="M3070.186,263.661l5.849-8.753c0.334-0.499,1.009-0.634,1.509-0.3l67.406,45.042
				c0.5,0.334,0.634,1.009,0.3,1.509l-5.849,8.753c-0.334,0.499-1.009,0.634-1.509,0.3l-67.406-45.042
				C3069.986,264.836,3069.852,264.16,3070.186,263.661z" class="color55677c svgShape"></path><circle cx="3080.054" cy="264.477" r="8.016" fill="#7c5555" class="color55677c svgShape"></circle></g><g fill="#000000" class="color000000 svgShape"><rect width="158.789" height="186.021" x="921.042" y="309.869" fill="#a07c7c" class="colora08d7c svgShape"></rect><rect width="125.291" height="146.778" x="937.791" y="329.49" fill="#ffffff" class="colorffffff svgShape"></rect><path fill="#efe1e1" d="M1063.082,476.268H937.791V329.49C979.554,378.416,1021.318,427.342,1063.082,476.268z" class="colorefe1e1 svgShape"></path><ellipse cx="921.045" cy="442.571" fill="#ed6969" rx="24.492" ry="22.713" transform="rotate(-86.589 921.057 442.588)" class="coloredb769 svgShape"></ellipse><path fill="#fff3f3" d="M964.208,453.276l-4.71,43.095l-0.048,0.425h-61.395l-4.758-43.52
						c0-7.063,6.09-12.785,13.606-12.785h43.697C958.119,440.49,964.208,446.212,964.208,453.276z" class="colorf3fcff svgShape"></path><path fill="#efcbcb" d="M958.832,496.371l-0.054,0.425H888.69l-5.431-43.52c0-7.063,6.952-12.785,15.533-12.785h12.627
						c0.57,8.695,1.439,21.279,2.064,30.354c0.462,6.862,5.784,12.83,13.578,15.289
						C936.157,488.995,948.567,492.929,958.832,496.371z" class="colorcbe2ef svgShape"></path><g fill="#000000" class="color000000 svgShape"><path fill="#473333" d="M920.975,417.429c-1.451-5.711-2.901-11.422-4.352-17.133c-0.606-2.387-4.295-1.375-3.687,1.018
					c1.451,5.711,2.901,11.422,4.352,17.133C917.894,420.834,921.583,419.823,920.975,417.429z" class="color473733 svgShape"></path></g><g fill="#000000" class="color000000 svgShape"><path fill="#f9f7f7" d="M1116.541,448.713v51.895h-93.909v-51.895c0-9.322,4.411-17.574,11.22-22.86
					c0.141-0.121,0.363-0.262,0.624-0.464c0.282-0.202,0.524-0.404,0.806-0.585c4.995-3.874,19.539-17.675,16.739-50.583h35.13
					c0,0-3.706,30.649,15.531,49.837c2.377,1.453,4.532,3.228,6.385,5.286c0.04,0.04,0.081,0.06,0.121,0.081h-0.04
					C1113.721,434.549,1116.541,441.288,1116.541,448.713z" class="colorf9f7f9 svgShape"></path><path fill="#efcbcb" d="M1064.147,374.22v31.072l-15.168,15.193v80.122h-26.348v-51.895
					c0-9.322,4.411-17.574,11.22-22.86c0.141-0.121,0.363-0.262,0.624-0.464c0.282-0.202,0.524-0.404,0.806-0.585
					c4.995-3.874,19.539-17.675,16.739-50.583H1064.147z" class="colorcbe2ef svgShape"></path></g><g fill="#000000" class="color000000 svgShape"><path fill="#b58383" d="M838.879,368.284c0,0,13.157-19.309,7.407-27.629c-5.75-8.32-11.181-12.799-12.778-1.92
						c-1.597,10.879-3.028,23.778-4.472,26.559s-4.792,11.839-3.514,17.279c1.278,5.44,3.514,12.479,3.514,12.479L838.879,368.284z" class="color83b583 svgShape"></path><path fill="#896262" d="M829.035,380.973c0-1.28-0.319-25.279-11.5-27.839c-11.181-2.56-8.29,10.941-5.395,23.879
						c2.895,12.938,4.117,22.522,4.117,22.522l17.251,24.635L829.035,380.973z" class="color628962 svgShape"></path><path fill="#896262" d="M850.119,400.592c0.958-0.42,22.042-27.939,21.723-34.658c-0.319-6.72-6.066-12.799-10.86-8.32
						c-4.794,4.48-18.85,18.559-22.364,23.999c-3.514,5.44-9.584,13.439-9.584,13.439l4.472,29.119L850.119,400.592z" class="color628962 svgShape"></path><path fill="#9b6565" d="M821.048,424.171c0,0-46.002-49.918-24.598-47.038s37.057,47.038,37.057,47.038H821.048z" class="color659b65 svgShape"></path><path fill="#9b6565" d="M842.452 424.171c1.278-.96 48.877-36.718 39.612-47.158-9.264-10.44-36.098 20.919-39.612 26.359-3.514 5.44-8.945 20.799-8.945 20.799H842.452zM836.12 394.792c8.255-6.757 15.025-15.207 19.511-24.894 3.551-7.666 5.996-15.975 2.752-20.283-6.987-9.28-20.084 20.479-22.32 23.999-2.236 3.52-6.249 14.882-6.249 14.882l-.779 12.097L836.12 394.792z" class="color659b65 svgShape"></path><g fill="#000000" class="color000000 svgShape"><path fill="#ff7373" d="M862.31,424.884l-5.338,61.156l-1.108,12.651h-44.719l-6.426-73.807
						c-0.322-3.652,2.538-6.8,6.204-6.8h45.162C859.752,418.085,862.632,421.232,862.31,424.884z" class="colorffc973 svgShape"></path><path fill="#ed6969" d="M856.972,486.04l-1.108,12.651h-44.719l-6.426-73.807c-0.322-3.652,2.538-6.8,6.204-6.8h2.155
						c1.148,10.31,3.767,40.616,5.157,56.778c0.544,6.154,5.459,10.976,11.603,11.38
						C837.413,486.746,847.766,487.049,856.972,486.04z" class="coloredb769 svgShape"></path></g></g><g fill="#000000" class="color000000 svgShape"><rect width="372.044" height="22.401" x="773.449" y="494.888" fill="#997a7a" class="color997a7a svgShape"></rect></g></g><g fill="#000000" class="color000000 svgShape"><ellipse cx="3083.268" cy="1671.452" fill="#897e7e" rx="150.232" ry="22.048" class="color89837e svgShape"></ellipse><polygon fill="#fff8f8" points="3193.901 1478.333 3188.394 1662.903 3188.106 1672.46 3006.206 1670.971 3003.59 1476.775" class="colorf8feff svgShape"></polygon><path fill="#efcbcb" d="M3188.394,1662.903l-0.289,9.557c-0.782,0.512-2.072,1.349-3.868,2.423
				c-11.279,3.417-46.04,5.673-87.151,5.337c-42.415-0.347-78.023-3.358-88.046-7.11c-0.995-0.723-1.935-1.44-2.813-2.121
				c-0.9-64.744-1.758-129.487-2.637-194.213l28.284,0.232l1.202,4.694l7.325,156.379c0.475,10.141,10.267,18.341,22.594,18.921
				L3188.394,1662.903z" class="colorcbe2ef svgShape"></path><path fill="#ad8989" d="M3180.343,1504.385c-26.723,5.432-54.067,8.441-81.605,9.025
				c-27.394,0.581-54.424-1.84-81.528-4.89c-1.372-0.154-1.633,3.318-0.23,3.616c53.132,11.273,111.326,8.607,164.112-2.24
				C3183.315,1509.439,3182.303,1503.986,3180.343,1504.385z" class="color8999ad svgShape"></path><path fill="#563c3c" d="M3193.894,1478.328c-0.029,3.27-16.07,6.016-40.601,7.569c-0.592,0.039-1.194,0.078-1.795,0.107
				c-0.679,0.049-1.359,0.087-2.048,0.126c-0.184,0.01-0.378,0.019-0.563,0.029c-1.038,0.058-2.096,0.116-3.164,0.165
				c-0.776,0.039-1.572,0.078-2.368,0.116c-1.523,0.068-3.066,0.136-4.638,0.194c-0.534,0.029-1.068,0.039-1.611,0.058
				c-2.94,0.117-5.958,0.204-9.044,0.281c-1.64,0.039-3.309,0.078-4.997,0.107c-1.757,0.029-3.542,0.058-5.337,0.078
				c-3.367,0.039-6.812,0.068-10.296,0.068h-3.493c-1.417,0.01-2.853,0-4.289-0.02h-0.98l-0.165-0.01c-0.505,0-1.028,0-1.523-0.02
				c-1.194,0-2.387-0.019-3.581-0.039c-1.523-0.019-3.047-0.039-4.551-0.078c-0.573,0-1.155-0.02-1.727-0.029
				c-3.911-0.087-7.744-0.184-11.499-0.311c-0.689-0.029-1.378-0.048-2.057-0.078c-2.251-0.087-4.464-0.165-6.637-0.262
				c-0.805-0.039-1.611-0.068-2.426-0.107c-0.766-0.029-1.533-0.078-2.29-0.116c-0.369-0.019-0.738-0.039-1.106-0.058
				c-0.689-0.029-1.368-0.068-2.047-0.097c-0.107-0.01-0.213-0.019-0.32-0.019c-0.786-0.049-1.553-0.087-2.329-0.136
				c-2.601-0.155-5.134-0.311-7.579-0.485c-3.843-0.272-7.501-0.573-10.946-0.893c-20.97-1.941-34.332-4.716-34.303-7.695
				c0.029-3.105,14.585-5.754,37.156-7.327c0.116-0.01,0.242-0.01,0.369-0.019c0.175-0.019,0.349-0.029,0.534-0.039
				c3.94-0.262,8.122-0.505,12.499-0.699c0.048,0,0.097-0.01,0.145-0.01c0.786-0.039,1.582-0.068,2.387-0.107
				c2.639-0.107,5.347-0.204,8.122-0.291c0.136-0.01,0.272-0.01,0.417-0.019c2.203-0.068,4.444-0.116,6.734-0.165
				c4.25-0.097,8.636-0.165,13.12-0.184h0.437c2.94-0.029,5.919-0.029,8.947-0.019c0.611,0.01,1.232,0.01,1.854,0.01h0.233
				l2.29,0.019c1.892,0.019,3.784,0.039,5.657,0.068c0.185,0,0.369,0.01,0.553,0.01l2.115,0.019
				c3.251,0.058,6.453,0.126,9.597,0.213c0.116,0.01,0.233,0.01,0.34,0.01c3.26,0.097,6.453,0.204,9.578,0.33
				c1.485,0.058,2.95,0.116,4.386,0.184c1.485,0.058,2.911,0.136,4.328,0.204c1.757,0.087,3.494,0.184,5.201,0.281
				c0.34,0.019,0.679,0.049,1.029,0.068c1.688,0.087,3.357,0.194,4.978,0.31c0.592,0.039,1.174,0.078,1.757,0.116
				c2.901,0.204,5.696,0.427,8.384,0.66c0.349,0.029,0.708,0.058,1.058,0.087c3.736,0.33,7.259,0.689,10.51,1.068
				C3184.19,1473.408,3193.913,1475.795,3193.894,1478.328z" class="color56453c svgShape"></path><path fill="#995f5f" d="M3164.753,1337.02c-5.764,41.164-17.535,70.751-20.31,77.563
					c-7.792,19.136-17.486,37.709-27.355,53.662c-0.116,0.184-0.233,0.379-0.349,0.563c-4.134,6.657-8.297,12.848-12.363,18.418
					h-0.437c-1.417,0.01-2.853,0-4.289-0.02h-0.98l-0.165-0.01c-0.505,0-1.028,0-1.523-0.02c-1.194,0-2.387-0.019-3.581-0.039
					c-1.523-0.019-3.047-0.039-4.551-0.078c-0.573,0-1.155-0.02-1.727-0.029c-3.911-0.087-7.744-0.184-11.499-0.311
					c-0.689-0.029-1.378-0.048-2.057-0.078c-2.251-0.087-4.464-0.165-6.637-0.262c-0.805-0.039-1.611-0.068-2.426-0.107
					c-0.766-0.029-1.533-0.078-2.29-0.116c-0.369-0.019-0.738-0.039-1.106-0.058c-0.019-0.602-0.01-1.155,0.01-1.65l-2.212,1.427
					l-0.165,0.107c-0.786-0.049-1.553-0.087-2.329-0.136c-2.601-0.155-5.134-0.311-7.579-0.485
					c-3.843-0.272-7.501-0.573-10.946-0.893l3.154-14.692l0.068-0.349l0.534-2.474c-1.204-0.214-2.417-0.427-3.649-0.67
					c-25.773-4.92-57.951-15.778-72.682-42.474c-21.63-39.203,8.763-86.471-13.789-104.84
					c-19.243-15.681-49.024,12.518-74.855-5.958c-17.176-12.295-24.823-39.669-20.31-60.494c4.6-21.232,20.582-29.801,16.623-37.389
					c-5.783-11.062-39.417,8.006-62.793-8.462c-15.352-10.82-22.474-34.303-20.31-52.478c2.426-20.388,15.827-28.199,11.082-40.63
					c-4.687-12.275-19.476-9.121-25.861-22.154c-9.044-18.495,11.286-44.143,12.935-46.171c4.93-6.075,15.439-19.02,30.858-20.31
					c20.611-1.727,24.405,19.495,48.548,24.007c26.375,4.92,35.729-17.845,66.481-12.935c6.899,1.106,25.065,3.387,35.089,16.623
					c18.35,24.24-10.247,58.592,3.688,73.875c10.529,11.538,33.73-0.475,58.99-6.89c16.788-4.26,34.487-6.046,49.975,3.192
					c11.198,6.686,20.553,18.729,26.132,32.236c2.242,5.434,3.872,11.101,4.774,16.749c0.844,5.298,1.039,10.587,0.485,15.652
					c-0.476,4.318-1.446,8.132-2.649,11.557c-4.318,12.44-11.46,19.776-7.404,27.452c1.203,2.271,2.989,3.755,5.211,4.735
					c11.014,4.823,32.77-2.95,47.316,9.811C3175.728,1258.701,3170.527,1295.866,3164.753,1337.02z" class="color5f997c svgShape"></path><path fill="#b58383" d="M3212.768,1344.405c-33.226,59.814-45.414,100.046-54.982,126.082
					c-0.864,2.348-1.698,4.58-2.542,6.705c-0.66,1.708-1.329,3.338-1.999,4.9c-0.572,1.359-1.155,2.659-1.747,3.911
					c-0.679,0.049-1.359,0.087-2.048,0.126c-0.184,0.01-0.378,0.019-0.563,0.029c-1.038,0.058-2.096,0.116-3.164,0.165
					c-0.776,0.039-1.572,0.078-2.368,0.116c-1.523,0.068-3.066,0.136-4.638,0.194c-0.534,0.029-1.068,0.039-1.611,0.058
					c-2.94,0.117-5.958,0.204-9.044,0.281c-1.64,0.039-3.309,0.078-4.997,0.107c-1.757,0.029-3.542,0.058-5.337,0.078
					c-3.367,0.039-6.812,0.068-10.296,0.068h-3.493c-1.417,0.01-2.853,0-4.289-0.02h-0.98l-0.165-0.01c-0.505,0-1.028,0-1.523-0.02
					c-1.194,0-2.387-0.019-3.581-0.039c-1.523-0.019-3.047-0.039-4.551-0.078c-0.573,0-1.155-0.02-1.727-0.029
					c-3.911-0.087-7.744-0.184-11.499-0.311c-0.689-0.029-1.378-0.048-2.057-0.078c-2.251-0.087-4.464-0.165-6.637-0.262
					c-0.805-0.039-1.611-0.068-2.426-0.107c-0.766-0.029-1.533-0.078-2.29-0.116c-0.369-0.019-0.738-0.039-1.106-0.058
					c-0.689-0.029-1.368-0.068-2.047-0.097c-0.049-0.039-0.107-0.078-0.155-0.126c-7.307-5.609-13.188-10.985-17.865-16.099
					c-0.106-0.116-0.213-0.223-0.301-0.33c-0.97-1.067-1.892-2.115-2.746-3.163c-10.645-12.809-13.828-23.92-13.585-33.236
					c0.767-29.82,36.496-38.446,38.786-78.582c1.97-34.769-22.698-66.064-27.025-71.381c-14.216-17.467-21.174-15.371-29.994-29.441
					c-17.952-28.617-7.045-65.879-2.077-82.832c7.55-25.802,17.797-39.999,27.588-51.207c13.575-15.546,26.268-25.298,29.655-52.207
					c3.93-31.188-9.257-48.859,3.697-86.801c7.414-21.708,15.682-27.51,19.107-29.548c20.533-12.217,56.185-2.115,71.692,19.757
					c18.302,25.822-3.396,51.275,16.312,76.272c14.789,18.767,31.567,10.189,44.317,29.548c12.78,19.388,8.074,48.791,0.427,70.1
					c-9.083,25.308-27.937,32.556-22.988,66.559c1.921,13.217,6.298,23.852,11.247,33.362c1.485,2.882,3.037,5.657,4.58,8.374
					C3223.792,1279.69,3237.833,1299.302,3212.768,1344.405z" class="color83b583 svgShape"></path><path fill="#a56f6f" d="M3339.345,1183.244c-5.958,23.386-18,38.417-33.682,57.99
					c-25.696,32.081-34.681,28.297-40.184,43.58c-13.333,36.981,38.272,61.93,33.236,108.955
					c-3.989,37.263-41.572,74.001-76.107,77.941c-21.339,2.426-30.412-8.937-50.46-1.727c-1.33,0.475-2.611,1-3.852,1.572
					c-5.454,2.504-10.014,5.813-13.896,9.432c-0.388,0.359-0.776,0.728-1.155,1.106c-1.349,1.32-2.61,2.669-3.794,4.037
					c-0.184,0.01-0.378,0.019-0.563,0.029c-1.038,0.058-2.096,0.116-3.164,0.165c-0.776,0.039-1.572,0.078-2.368,0.116
					c-1.523,0.068-3.066,0.136-4.638,0.194c-0.534,0.029-1.068,0.039-1.611,0.058c-2.94,0.117-5.958,0.204-9.044,0.281
					c-1.64,0.039-3.309,0.078-4.997,0.107c-1.757,0.029-3.542,0.058-5.337,0.078c-0.835-6.016-1.164-12.479-0.99-18.35
					c0-0.194,0-0.378,0.01-0.573c0.242-7.093,1.213-13.236,2.901-16.574c-5.036-7.152-10.626-15.759-15.943-25.288
					c0.262,13.877,0.582,27.743,0.776,41.62c0.087,5.376,0.146,10.752,0.185,16.138c0.01,1.029-0.194,2.213-0.679,3.096h-0.049
					c-1.417,0.01-2.853,0-4.289-0.02c-1.718-1.863-2.62-5.327-2.736-7.365c-0.233-3.979-0.437-7.957-0.611-11.936
					c-0.893-19.495-1.223-39.029-1.252-58.563c-11.383-24.958-18.467-53.41-9.704-77.864c2.727-7.598,6.696-14.022,11.383-19.709
					c1.611-44.443,4.444-88.848,8.685-133.117c0.757-7.88,1.552-15.749,2.377-23.619c5.803-55.03,13.44-109.867,22.853-164.383
					c1.029-5.929,4.532-1.562,3.891,2.416c-5.628,35.089-10.519,70.285-14.614,105.578c-2.824,24.328-5.269,48.713-7.356,73.138
					c-0.767,9.063-1.494,18.136-2.164,27.21c-0.805,10.723-1.533,21.455-2.193,32.188c-1.281,20.873-2.319,41.755-3.125,62.628
					c-0.126,3.154-0.233,6.298-0.34,9.452c21.193-20.058,49.373-31.858,50.78-62.269c0.815-17.739-8.617-16.953-11.082-42.474
					c-3.338-34.555,10.344-73.351,36.933-97.883c16.38-15.109,20.077-8.578,35.089-24.007c26.491-27.209,19.01-51.625,41.736-64.666
					c13.663-7.841,32.44-8.229,46.908,0.029c14.779,8.442,25.385,26.103,23.154,41.387c-1.669,11.499-9.985,12.508-10.606,23.707
					c-0.854,15.536,10.703,22.29,18.835,38.563C3349.796,1142.264,3342.401,1171.269,3339.345,1183.244z" class="color6fa56f svgShape"></path><path fill="#824545" d="M3036.184,1360.195c-39.08-89.764-94.798-172.769-161.281-244.5
					c-18.688-20.163-38.325-39.428-58.77-57.806c-1.87-1.681-3.342,6.501-1.248,8.418
					c71.562,65.501,132.464,142.494,180.024,227.039c13.459,23.926,25.658,48.498,37.143,73.424
					c0.844,1.831,2.241,3.725,4.013,1.755C3037.69,1366.718,3037.04,1362.16,3036.184,1360.195z" class="color458263 svgShape"></path><path fill="#8e5f5f" d="M3284.916,1043.887c-13.255,31.994-25.774,64.288-37.506,96.864
					c-13.605,37.738-26.171,75.845-37.68,114.272c-6.172,20.553-12.043,41.202-17.603,61.93
					c-7.947,29.577-15.216,59.32-21.999,89.188c-4.852,21.319-8.84,42.862-13.401,64.259c-0.485,2.271-0.98,4.532-1.485,6.793
					c-0.271,1.261-0.553,2.533-0.844,3.794c-0.359,1.64-0.728,3.27-1.106,4.91c-0.592,0.039-1.194,0.078-1.795,0.107
					c-0.679,0.049-1.359,0.087-2.048,0.126c-0.184,0.01-0.378,0.019-0.563,0.029c-1.038,0.058-2.096,0.116-3.164,0.165
					c0.776-5.531,1.66-11.063,2.62-16.584c4.823-27.947,11.567-55.69,18.156-83.201c11.266-47.044,24.221-93.71,38.65-139.89
					c3.862-12.392,7.841-24.735,11.916-37.049c19.291-58.233,40.999-115.641,65.006-172.088c0.786-1.844,2.106-1.359,2.921,0.039
					C3286.032,1039.316,3285.653,1042.101,3284.916,1043.887z" class="color5f8e5f svgShape"></path></g><g fill="#000000" class="color000000 svgShape"><ellipse cx="468.781" cy="1671.452" fill="#897e7e" rx="393.039" ry="39.004" class="color89837e svgShape"></ellipse><path fill="#ff7373" d="M519.578,639.099v75.275h132.611v-75.275c0-1.27-0.134-2.506-0.376-3.7
						c-1.712-8.268-9.037-14.482-17.806-14.482H537.76c-7.082,0-13.213,4.042-16.219,9.947
						C520.288,633.336,519.578,636.134,519.578,639.099z" class="colorffc973 svgShape"></path><path fill="#ed6969" d="M521.54,630.864c55.406,10.473,105.317,7.35,130.272,4.535
						c-1.712-8.268-9.037-14.482-17.806-14.482H537.76C530.677,620.917,524.547,624.959,521.54,630.864z" class="coloredb769 svgShape"></path><path fill="#9b6565" d="M537.76,622.588c0,0,20.905,0.727,49.894,2.288c6.966,0.376,14.098,0.76,20.997,1.094
					c19.067,0.902,36.381,1.361,43.538-0.083c19.502-3.925,40.866-6.957,30.702-29.014c-6.682-14.499-22.892,0.025-23.394,0.484
					c0.418-0.635,16.938-25.665,9.12-38.26c-7.6-12.244-38.176,20.312-40.598,22.917c2.272-2.614,30.702-35.938,12.01-44.34
					c-8.903-0.743-28.438,32.973-30.818,37.141c2.422-4.452,22.583-42.636,6.13-54.271c-14.19-10.031-24.747,27.386-28.221,41.851
					c2.982-14.181,9.162-50.404-7.542-41.851c-8.552,4.376-12.478,12.695-14.131,20.938c-1.545-9.496-5.938-17.84-16.979-15.727
					c-23.252,4.46-10.624,37.032-10.198,38.118c-0.685-0.919-23.36-31.336-41.367-16.311c-17.28,14.424,25.164,35.813,29.816,38.093
					c-3.316-1.537-25.974-11.45-37.517-0.66c-1.921,1.796-3.533,4.159-4.702,7.233C475.755,615.28,537.76,622.588,537.76,622.588z" class="color659b65 svgShape"></path><path fill="#896262" d="M537.76,622.588c0,0,20.905,0.727,49.894,2.288c6.966,0.376,14.098,0.76,20.997,1.094
					c-23.284-0.691-57.654-5.206-93.181-24.186c-9.944-5.313-18.675-11.061-26.267-16.788c-1.921,1.796-3.533,4.159-4.702,7.233
					C475.755,615.28,537.76,622.588,537.76,622.588z" class="color628962 svgShape"></path><path fill="#b58383" d="M589.642,607.905c0.53-1.353,21.242-25.73,9.239-35.069
					c-12.003-9.339-20.365,16.678-19.305,13.011c1.06-3.667,7.947-26.449-6.888-31.217c-14.835-4.768-11.656,26.637-11.656,26.637
					s-17.963-30.875-22.757-17.365c-4.793,13.51,13.137,48.714,36.002,49.537C584.581,613.811,589.642,607.905,589.642,607.905z" class="color83b583 svgShape"></path><g fill="#000000" class="color000000 svgShape"><rect width="201.456" height="235.616" x="226.368" y="476.253" fill="#a07c7c" class="colora08d7c svgShape"></rect><rect width="158.957" height="185.911" x="247.617" y="501.105" fill="#fff8f8" class="colorf8feff svgShape"></rect><path fill="#efe1e1" d="M406.575,687.016H247.617V501.105C300.603,563.075,353.589,625.046,406.575,687.016z" class="colorefe1e1 svgShape"></path></g><g fill="#000000" class="color000000 svgShape"><rect width="613.701" height="915.437" x="160.444" y="738.09" fill="#ead8d8" class="coloread9d8 svgShape"></rect><rect width="270.208" height="134.908" x="191.992" y="1518.619" fill="#c15959" class="color5992c1 svgShape"></rect><rect width="270.208" height="18.09" x="191.992" y="1518.619" fill="#514a4a" class="color4a5150 svgShape"></rect><rect width="274.971" height="25.22" x="189.609" y="1503.141" fill="#c15959" class="color5992c1 svgShape"></rect><rect width="270.208" height="134.908" x="489.215" y="1518.619" fill="#ad8989" class="color8999ad svgShape"></rect><rect width="270.208" height="18.09" x="489.215" y="1518.619" fill="#514a4a" class="color4a5150 svgShape"></rect><rect width="274.971" height="25.22" x="486.832" y="1503.141" fill="#ad8989" class="color8999ad svgShape"></rect><path fill="#a07c7c" d="M359.926,1300.018h-136.76c-8.828,0-15.985-7.157-15.985-15.985v-19.532
						c0-8.828,7.157-15.985,15.985-15.985h136.76c8.828,0,15.985,7.157,15.985,15.985v19.532
						C375.911,1292.862,368.754,1300.018,359.926,1300.018z" class="colora08d7c svgShape"></path><path fill="#b58383" d="M381.072,1358.413H214.424c-8.828,0-15.985-7.157-15.985-15.985v-28.654
						c0-8.828,7.157-15.985,15.985-15.985h166.648c8.828,0,15.985,7.157,15.985,15.985v28.654
						C397.056,1351.257,389.9,1358.413,381.072,1358.413z" class="color83b583 svgShape"></path><path fill="#ff7373" d="M417.425,1433.331H203.21c-8.828,0-15.985-7.157-15.985-15.985v-43.174
						c0-8.828,7.157-15.985,15.985-15.985h214.216c8.828,0,15.985,7.157,15.985,15.985v43.174
						C433.41,1426.174,426.254,1433.331,417.425,1433.331z" class="colorffc973 svgShape"></path><g fill="#000000" class="color000000 svgShape"><rect width="60.398" height="205.289" x="174.51" y="759.466" fill="#f48989" class="colorf489c9 svgShape"></rect><circle cx="205.415" cy="928.927" r="18.19" fill="#514a4a" transform="rotate(-80.781 205.431 928.925)" class="color4a5150 svgShape"></circle><rect width="60.398" height="205.289" x="244.445" y="759.466" fill="#ff7373" class="colorffc973 svgShape"></rect><circle cx="275.35" cy="928.927" r="18.19" fill="#514a4a" transform="rotate(-76.714 275.397 928.987)" class="color4a5150 svgShape"></circle><rect width="60.398" height="205.289" x="314.379" y="759.466" fill="#fff8f8" class="colorf8feff svgShape"></rect><circle cx="345.285" cy="928.927" r="18.19" fill="#514a4a" transform="rotate(-80.781 345.301 928.922)" class="color4a5150 svgShape"></circle><rect width="60.398" height="205.289" x="384.314" y="759.466" fill="#b58383" class="color83b583 svgShape"></rect><circle cx="415.22" cy="928.927" r="18.19" fill="#514a4a" transform="rotate(-80.781 415.236 928.921)" class="color4a5150 svgShape"></circle><g fill="#000000" class="color000000 svgShape"><rect width="60.398" height="205.289" x="454.249" y="759.466" fill="#a07c7c" class="colora08d7c svgShape"></rect><circle cx="485.155" cy="928.927" r="18.19" fill="#514a4a" transform="rotate(-50.653 485.202 928.977)" class="color4a5150 svgShape"></circle></g><g fill="#000000" class="color000000 svgShape"><rect width="60.398" height="205.289" x="524.184" y="759.466" fill="#ad8989" class="color8999ad svgShape"></rect><circle cx="555.089" cy="928.927" r="18.19" fill="#514a4a" transform="rotate(-80.886 555.113 928.913)" class="color4a5150 svgShape"></circle></g><g fill="#000000" class="color000000 svgShape"><rect width="60.398" height="205.289" x="594.119" y="759.466" fill="#b58383" class="color83b583 svgShape"></rect><circle cx="625.024" cy="928.927" r="18.19" fill="#514a4a" transform="rotate(-80.886 625.037 928.908)" class="color4a5150 svgShape"></circle></g><g fill="#000000" class="color000000 svgShape"><rect width="60.398" height="205.289" x="664.054" y="759.466" fill="#c15959" class="color5992c1 svgShape"></rect><circle cx="694.959" cy="928.927" r="18.19" fill="#514a4a" transform="rotate(-80.886 694.972 928.907)" class="color4a5150 svgShape"></circle></g></g><g fill="#000000" class="color000000 svgShape"><rect width="270.208" height="134.908" x="173.316" y="1048.631" fill="#fff8f8" class="colorf8feff svgShape"></rect><rect width="270.208" height="18.09" x="173.316" y="1048.631" fill="#ad8989" class="color8999ad svgShape"></rect><rect width="274.971" height="25.22" x="170.933" y="1033.152" fill="#fff8f8" class="colorf8feff svgShape"></rect></g><g fill="#000000" class="color000000 svgShape"><rect width="270.208" height="134.908" x="471.731" y="1048.631" fill="#c15959" class="color5992c1 svgShape"></rect><rect width="270.208" height="18.09" x="471.731" y="1048.631" fill="#ad4444" class="color4482ad svgShape"></rect><rect width="274.971" height="25.22" x="469.349" y="1033.152" fill="#c15959" class="color5992c1 svgShape"></rect></g><g fill="#000000" class="color000000 svgShape"><rect width="270.208" height="134.908" x="471.731" y="1298.473" fill="#a07c7c" class="colora08d7c svgShape"></rect><rect width="270.208" height="18.09" x="471.731" y="1298.473" fill="#7f6363" class="color7f7063 svgShape"></rect><rect width="274.971" height="25.22" x="469.349" y="1282.994" fill="#a07c7c" class="colora08d7c svgShape"></rect></g><g fill="#000000" class="color000000 svgShape"><path fill="#fff8f8" d="M800.871,1680.253H133.718V711.364h667.153V1680.253z M160.444,1653.527h613.701V738.09
							H160.444V1653.527z" class="colorf8feff svgShape"></path><path fill="#fff8f8" d="M330.048 991.871c-101.836 0-179.512-.114-182.88-.459l2.722-26.587c-.097-.01-.241-.025-.434-.035 13.021.65 422.098.263 636.585-.034l.037 26.726C696.847 991.605 485.375 991.871 330.048 991.871zM329.847 1209.234c-101.836 0-179.512-.114-182.88-.459l2.722-26.587c-.097-.01-.241-.025-.434-.035 13.021.65 422.097.262 636.585-.034l.038 26.726C696.647 1208.967 485.175 1209.234 329.847 1209.234zM328.599 1460.446c-101.836 0-179.512-.114-182.88-.459l2.722-26.587c-.097-.01-.241-.025-.434-.035 13.02.649 422.098.262 636.584-.034l.038 26.726C695.399 1460.18 483.928 1460.446 328.599 1460.446z" class="colorf8feff svgShape"></path></g></g></g><g fill="#000000" class="color000000 svgShape"><path fill="#897e7e" d="M2553.41,1999.777c0,76.839,1201.954,129.613-101.111,250.805
		c-181.034,16.837-615.34,16.806-857.686,16.806c-582.564,0-1054.825-106.661-1054.825-238.233s472.292-243.068,1054.825-238.233
		C2104.684,1795.156,2553.41,1868.205,2553.41,1999.777z" class="color89837e svgShape"></path><circle cx="2229.739" cy="2037.093" r="27.218" fill="#230606" class="color220623 svgShape"></circle><circle cx="2482.944" cy="2009.875" r="27.218" fill="#230606" class="color220623 svgShape"></circle><circle cx="2231.43" cy="1926.978" r="19.546" fill="#230606" class="color220623 svgShape"></circle><circle cx="2482.944" cy="1926.978" r="19.546" fill="#230606" class="color220623 svgShape"></circle><path fill="#442020" d="M2210.479,2025.91l-0.445-0.042c-4.956-0.464-8.375-4.722-7.324-9.154
						c6.018-25.397,33.644-100.787,152.08-126.298l3.539-0.76l3.468,0.986c4.436,1.264,105.401,30.67,149.031,98.629
						c2.752,4.287,0.861,9.815-4.018,12.035c-8.09,3.681-17.847,1.201-22.839-5.664c-36.093-49.632-110.099-75.601-126.733-80.942
						c-89.017,20.417-117.422,73.177-126.103,98.644C2228.363,2021.479,2219.788,2026.782,2210.479,2025.91z" class="color442044 svgShape"></path><path fill="#442020" d="M2217.046 1923.484c2.728-2.469 4.979-4.277 7.522-6.229 2.477-1.907 5.015-3.719 7.607-5.449 5.153-3.511 10.572-6.658 16.122-9.635 11.162-5.849 23.209-10.496 35.849-13.641 6.28-1.735 12.821-2.596 19.338-3.563 3.285-.309 6.602-.436 9.907-.646 1.655-.067 3.309-.245 4.966-.213l4.975.188c13.356.056 26.364 3.032 38.991 6.507l-8.969 22.697c-10.042-3.236-20.368-6.303-31.123-6.829l-4.017-.382c-1.342-.102-2.689 0-4.037-.014-2.695.048-5.406-.008-8.115.098-5.389.566-10.845.946-16.196 2.163-10.743 2.1-21.338 5.539-31.396 10.169-4.997 2.365-9.938 4.893-14.646 7.757-.047.028-.094.055-.141.083-8.137 4.783-18.782 3.974-25.686-2.21L2217.046 1923.484zM2507.601 1923.484c-2.728-2.469-4.979-4.277-7.522-6.229-2.477-1.907-5.015-3.719-7.607-5.449-5.153-3.511-10.572-6.658-16.122-9.635-11.163-5.849-23.209-10.496-35.849-13.641-6.28-1.735-12.821-2.596-19.338-3.563-3.285-.309-6.602-.436-9.907-.646-1.655-.067-3.309-.245-4.966-.213l-4.975.188c-13.356.056-26.364 3.032-38.991 6.507l8.969 22.697c10.042-3.236 20.368-6.303 31.123-6.829l4.018-.382c1.342-.102 2.689 0 4.037-.014 2.694.048 5.405-.008 8.115.098 5.389.566 10.845.946 16.196 2.163 10.743 2.1 21.338 5.539 31.396 10.169 4.998 2.365 9.938 4.893 14.646 7.757.047.028.094.055.141.083 8.137 4.783 18.782 3.974 25.686-2.21L2507.601 1923.484z" class="color442044 svgShape"></path><path fill="#230606" d="M2357.783,1902.13c-11.59-0.35-23.161-4.813-23.161-12.378c0-0.042,0-439.309,0-439.309h46.436
					c0,0,0,436.623,0,439.304C2381.057,1898.694,2369.41,1902.482,2357.783,1902.13z" class="color220623 svgShape"></path><path fill="#442020" d="M2385.116,1898.888c-16.03,8.646-31.889,9.808-47.567,2.963
					c-3.653-1.595-5.905-5.049-5.905-8.736v-98.054c0-1.794,1.964-2.984,3.82-2.377c15.277,4.996,30.555,4.996,45.832,0
					c1.856-0.607,3.82,0.583,3.82,2.377V1898.888z" class="color442044 svgShape"></path><path fill="#230606" d="M2448.372,1237.312c1.811,6.903-39.06,240.752-39.06,240.752l31.388,6.576l51.105-286.317
			l-33.448-4.712L2448.372,1237.312z" class="color220623 svgShape"></path><g fill="#000000" class="color000000 svgShape"><path fill="#230606" d="M2093.125,1526.359c74.895-38.871,175.091-83.12,336.881-56.266
				c64.33,10.677,107.339,10.153,136.098,15.286c19.914,3.554,19.903,44.499,5.527,54.365
				c-44.45,30.505-115.406,68.187-140.692,82.951c-27.092,15.818-325.268-7.388-343.46-53.727
				C2083.764,1559.504,2078.174,1534.118,2093.125,1526.359z" class="color220623 svgShape"></path><path fill="#442020" d="M2116.052,1512.049c70.512-32.627,152.164-94.582,313.954-67.728
				c64.33,10.677,108.232,23.698,136.098,32.466c16.632,5.234,19.903,27.318,5.527,37.185
				c-44.45,30.505-115.406,68.187-140.692,82.951C2398.315,1615.971,1972.59,1578.431,2116.052,1512.049z" class="color442044 svgShape"></path></g><path fill="#442020" d="M2506.767,1332.121c0,0,65.269,3.476,92.516-25.498c27.247-28.974,73.567-340.941,54.494-370.238
			c-19.073-29.297-253.271-90.285-279.554-13.675c-26.283,76.61-40.249,286.892-33.738,346.94
			C2346.996,1329.698,2467.202,1334.533,2506.767,1332.121z" class="color442044 svgShape"></path><g fill="#000000" class="color000000 svgShape"><path fill="#514a4a" d="M1546.75 1948.704h-5.58c-6.331 0-11.464-5.132-11.464-11.464v-694.91c0-6.331 5.132-11.464 11.464-11.464h5.58c6.331 0 11.463 5.132 11.463 11.464v694.91C1558.214 1943.572 1553.081 1948.704 1546.75 1948.704zM2497.009 2090.941h-5.535c-6.323 0-11.448-5.125-11.448-11.448v-692.622c0-6.323 5.125-11.448 11.448-11.448h5.535c6.323 0 11.448 5.126 11.448 11.448v692.622C2508.457 2085.815 2503.332 2090.941 2497.009 2090.941zM2024.382 2180.844h-9.681c-7.028 0-12.726-5.698-12.726-12.726v-750.183c0-7.028 5.698-12.726 12.726-12.726h9.681c7.029 0 12.726 5.698 12.726 12.726v750.183C2037.108 2175.146 2031.41 2180.844 2024.382 2180.844z" class="color4a5150 svgShape"></path><polygon fill="#a04d4d" points="2623.5 1407.5 2063.549 1484.36 1477.63 1248.241 1477.63 1228.196 1913.462 1191.064" class="colora06e4d svgShape"></polygon><polygon fill="#c48a8a" points="2623.5 1387.456 2063.549 1464.316 1477.63 1228.196 1913.462 1171.019" class="colorc4a18a svgShape"></polygon><polygon fill="#aa5555" points="2063.549 1464.316 2063.549 1484.36 2623.5 1407.5 2623.5 1387.456" class="coloraa7355 svgShape"></polygon><g fill="#000000" class="color000000 svgShape"><path fill="#ede8e8" d="M2126.838,1371.13c-1.993,0.244,158.309-44.209,158.309-44.209l85.829,49.846l-164.113,58.545
							L2126.838,1371.13z" class="colorede8ed svgShape"></path><path fill="#785454" d="M2216.565 1416.491l-52.398-44.395c-1.228-1.04-3.014.73-1.778 1.778l52.398 44.395C2216.015 1419.308 2217.802 1417.538 2216.565 1416.491zM2235.883 1409.915l-52.398-44.395c-1.228-1.04-3.014.73-1.778 1.778l52.398 44.395C2235.333 1412.733 2237.119 1410.963 2235.883 1409.915zM2255.424 1402.705l-52.398-44.395c-1.228-1.04-3.014.73-1.778 1.778l52.398 44.395C2254.874 1405.523 2256.66 1403.753 2255.424 1402.705zM2275.986 1398.061l-52.398-44.395c-1.228-1.04-3.014.73-1.778 1.778l52.398 44.395C2275.436 1400.879 2277.222 1399.109 2275.986 1398.061z" class="color684d5d svgShape"></path><g fill="#000000" class="color000000 svgShape"><path fill="#f7f5f5" d="M2141.922,1371.13c-1.993,0.244,158.309-44.209,158.309-44.209l85.829,49.846l-164.113,58.545
							L2141.922,1371.13z" class="colorf7f5f7 svgShape"></path><path fill="#785454" d="M2231.649 1416.491l-52.398-44.395c-1.228-1.04-3.014.73-1.778 1.778l52.398 44.395C2231.099 1419.308 2232.886 1417.538 2231.649 1416.491zM2250.967 1409.915l-52.398-44.395c-1.228-1.04-3.014.73-1.778 1.778l52.398 44.395C2250.417 1412.733 2252.204 1410.963 2250.967 1409.915zM2270.508 1402.705l-52.398-44.395c-1.228-1.04-3.014.73-1.778 1.778l52.398 44.395C2269.958 1405.523 2271.745 1403.753 2270.508 1402.705zM2291.07 1398.061l-52.398-44.395c-1.228-1.04-3.014.73-1.778 1.778l52.398 44.395C2290.52 1400.879 2292.307 1399.109 2291.07 1398.061z" class="color684d5d svgShape"></path></g><g fill="#000000" class="color000000 svgShape"><path fill="#c15252" d="M2234.884,1381.293c-0.986-0.429-1.727-1.353-1.875-2.496c-0.219-1.729,1.003-3.311,2.731-3.53
							l131.873-16.78c1.739-0.219,3.307,1.005,3.53,2.731c0.219,1.729-1.003,3.311-2.731,3.53l-131.874,16.78
							C2235.952,1381.604,2235.386,1381.512,2234.884,1381.293z" class="color5291c1 svgShape"></path><path fill="#492727" d="M2235.74,1375.268l-11.781,4.635l12.58,1.626
						C2238.733,1379.009,2237.637,1375.819,2235.74,1375.268z" class="color492749 svgShape"></path></g></g><path fill="#bc8484" d="M1602.833,1245.5c0,0-17.333-1.333-16.667,4.667c0.667,6,24.667,15,45.333,15.667
				c20.667,0.667,40,0.333,53.333-3c13.333-3.333,11.667-20-19.333-22.333S1632.833,1241.167,1602.833,1245.5z" class="colorbc9884 svgShape"></path><g fill="#000000" class="color000000 svgShape"><path fill="#f9c7c7" d="M1682.51,1158.933c0,0-0.544,10.28-1.26,23.796l-0.2,3.751c-0.115,1.918-0.2,3.894-0.315,5.87
						l-0.315,6.071c-0.086,1.346-0.143,2.692-0.229,4.066l-0.315,6.099c-0.029,0.687-0.086,1.346-0.115,2.033l-0.2,3.98
						c-0.057,0.659-0.086,1.317-0.115,1.947l-0.2,3.837l-0.286,5.469c-0.029,0.573-0.057,1.145-0.086,1.718l-0.344,6.357
						l-0.63,12.113h-0.057c0,0.086,0.057,0.172,0.029,0.258c-0.029,0.344-0.086,0.687-0.258,1.059
						c-2.348,5.126-19.959,9.106-41.12,9.106c-17.353,0-32.329-2.692-38.428-6.471c-0.802-0.516-1.46-1.031-1.918-1.546
						c-0.63-0.687-0.974-1.403-1.031-2.148c0-0.086,0.029-0.143,0.029-0.229v-0.029c-0.029,0-0.029,0-0.029,0l-4.639-87.107H1682.51
						z" class="colorf9c7c7 svgShape"></path><path fill="#f4b3b3" d="M1682.51,1158.933c0,0-0.544,10.28-1.26,23.796c-0.057,1.231-0.143,2.491-0.2,3.751
						c-0.115,1.918-0.2,3.894-0.315,5.87c-0.115,2.004-0.229,4.009-0.315,6.071c-0.086,1.346-0.143,2.692-0.229,4.066
						c-0.114,2.033-0.229,4.095-0.315,6.099c-0.029,0.687-0.086,1.346-0.115,2.033c-0.057,1.346-0.143,2.663-0.2,3.98
						c-0.057,0.659-0.086,1.317-0.115,1.947c-0.057,1.317-0.143,2.577-0.2,3.837c-0.115,1.89-0.2,3.694-0.286,5.469
						c-0.029,0.573-0.057,1.145-0.086,1.718c-0.143,2.262-0.258,4.41-0.344,6.357c-0.401,7.331-0.687,12.113-0.687,12.113
						c0,0.086,0.057,0.172,0.029,0.258c-0.029,0.344-0.086,0.687-0.258,1.059c-2.348,5.126-19.959,9.106-41.12,9.106
						c-17.353,0-32.329-2.692-38.428-6.471c-0.802-0.516-1.46-1.031-1.918-1.546c23.423,2.434,65.288-0.767,72.189-12.708
						c3.092-5.383,10.48-76.805,4.467-76.805H1682.51z" class="colorf4b3b3 svgShape"></path><path fill="#ffd4d4" d="M1625.383,1158.933c-1.919,36.252-4.696,77.4-7.273,79.089c-4.667,3.007-12.914,2.434-14.718,0
						c-1.002-1.346-3.325-34.007-7.703-79.089H1625.383z" class="colorffd4d4 svgShape"></path><path fill="#f4b3b3" d="M1682.519,1158.935c-0.47,8.851-21.069,15.894-46.018,15.894
						c-24.949,0-45.549-7.043-46.018-15.894c-0.479-9.035,20.12-16.499,46.018-16.499
						C1662.4,1142.436,1682.999,1149.9,1682.519,1158.935z" class="colorf4b3b3 svgShape"></path><path fill="#776161" d="M1679.144,1158.939c-0.32,7.107-14.727,12.966-33.616,14.439
						c-2.913,0.192-5.923,0.32-9.028,0.32c-1.985,0-3.906-0.032-5.827-0.128c-1.345-0.064-2.657-0.16-3.938-0.256
						c-5.955-0.512-11.461-1.441-16.167-2.721c-9.957-2.689-16.488-6.883-16.712-11.653c-0.32-6.147,9.892-11.493,24.811-13.894
						c0,0,0.032,0,0.032-0.032c2.017-0.32,4.162-0.576,6.339-0.8c3.65-0.352,7.491-0.544,11.461-0.544
						C1660.479,1143.668,1679.56,1150.551,1679.144,1158.939z" class="color77616f svgShape"></path><g fill="#000000" class="color000000 svgShape"><path fill="#893838" d="M1628.369,1158.082c7.235-14.265,6.723-41.489-0.412-54.16
						c-13.785-24.482-25.223-24.578-29.768-12.432c-4.545,12.146,11.626,77.417,20.453,75.49
						C1622.754,1166.082,1625.983,1162.787,1628.369,1158.082z" class="color388964 svgShape"></path><path fill="#893838" d="M1601.984,1163.596c-3.465-1.277-6.672-3.012-8.577-4.264
						c-11.338-7.453-14.277-19.628-15.635-32.497c-4.166-39.488,19.17-8.4,30.839,10.087c3.336,5.285,9.857,15.889,8.79,22.42
						C1616.179,1166.809,1608.609,1166.038,1601.984,1163.596z" class="color388964 svgShape"></path><path fill="#752c2c" d="M1636.504,1165.04c1.354-3.261-0.558-42.456-15.452-62.836
						c-14.893-20.38-14.831,31.874-8.062,56.33C1619.76,1182.99,1636.504,1165.04,1636.504,1165.04z" class="color2c7552 svgShape"></path><path fill="#893838" d="M1648.53,1160.701c11.342-11.278,19.39-37.29,16.587-51.559
						c-5.416-27.57-16.247-31.246-24.371-21.137c-8.124,10.109-13.228,77.159-4.243,78.097
						C1640.69,1166.537,1644.789,1164.421,1648.53,1160.701z" class="color388964 svgShape"></path><path fill="#752c2c" d="M1648.716 1169.176c14.835.853 34.969-3.267 48.895-22.001 14.216-19.124 6.77-31.817-5.416-24.371-12.185 7.447-38.434 31.624-43.666 39.334C1645.034 1167.289 1648.716 1169.176 1648.716 1169.176zM1631.52 1140.042c14.835.853 38.932-2.974 45.702-25.314 6.77-22.34-3.512-35.532-11.57-23.741-11.451 16.755-29.086 34.307-34.318 42.017C1627.839 1138.155 1631.52 1140.042 1631.52 1140.042z" class="color2c7552 svgShape"></path><path fill="#994444" d="M1648.716 1169.176c3.646 4.177 44.312-39.849 33.812-55.173C1675.364 1103.55 1638.899 1146.906 1648.716 1169.176zM1615.929 1167.528c0 0 7.306-40.138-4.797-46.879-12.103-6.74-20.707-4.875-15.951 23.439C1599.937 1172.403 1615.929 1167.528 1615.929 1167.528z" class="color449974 svgShape"></path><path fill="#a56060" d="M1634.558,1160.98c0,0,14.757-43.969-1.745-44.109c-16.502-0.14-14.866,57.515-2.623,55.052
						L1634.558,1160.98z" class="color60a585 svgShape"></path><path fill="#893838" d="M1626.736,1173.314c-5.955-0.512-11.461-1.441-16.167-2.721
						c2.273-11.781,7.427-25.004,7.427-25.004c0.224-0.192,0.448-0.384,0.672-0.544c0,0,0.032,0,0.032-0.032
						c2.657-1.953,4.771-2.049,6.339-0.8C1629.553,1147.734,1629.809,1161.916,1626.736,1173.314z" class="color388964 svgShape"></path><path fill="#752c2c" d="M1645.528,1173.378c-2.913,0.192-5.923,0.32-9.028,0.32c-1.985,0-3.906-0.032-5.827-0.128
						c0.8-4.226,1.729-7.812,1.729-7.812s10.341-21.482,16.007-21.322C1661.056,1144.82,1649.659,1166.655,1645.528,1173.378z" class="color2c7552 svgShape"></path></g></g><g fill="#000000" class="color000000 svgShape"><path fill="#ad8989" d="M2140.116,1342.102l-193.097,47.908c-2.674-0.483-6.407-1.197-10.873-2.188
					c-2.953-0.655-5.734-1.942-8.165-3.742l-204.363-135.792c-4.059-3.006,7.941-10.945,5.334-15.272
					c-2.156-3.578-3.942-6.694-5.334-9.182c17.173-3.305,35.625-3.371,53.067-5.659c17.963-2.356,35.889-4.992,53.881-7.121
					c23.377-2.767,46.754-5.533,70.131-8.3c7.449-1.316,15.124,0.023,21.688,3.783l219.13,116.928
					C2145.792,1325.913,2144.898,1340.915,2140.116,1342.102z" class="color8999ad svgShape"></path><path fill="#af9c9c" d="M2140.116,1333.511l-201.573,50.01l-20.646-15.921h-0.029l-172.095-132.665l-14.146-10.91
					l165.933-28.424c7.449-1.316,15.124,0.023,21.688,3.783l222.268,124.079C2145.792,1325.913,2144.898,1332.325,2140.116,1333.511
					z" class="color9ca5af svgShape"></path><path fill="#ad8989" d="M1734.502,1221.159l204.041,162.363c1.744-1.744,2.328-4.337,1.499-6.661l-93.71-262.698
					c-2.013-5.643-6.046-10.339-11.32-13.181l-164.6-74.509c-1.629-0.878-4.318,1.636-3.847,3.425L1734.502,1221.159z" class="color8999ad svgShape"></path><path fill="#967e7e" d="M2057.835,1336.446l-4.925,1.002l-4.152,0.859l-19.901,4.066l-4.095,0.83l-19.185,3.923
						l-4.095,0.83l-19.415,3.98l-4.095,0.83l-18.842,3.866l-4.066,0.83l-19.071,3.894c-49.109-37.884-103.2-74.737-153.769-112.334
						c-5.584-4.123-11.11-8.276-16.579-12.427c-2.864-2.176-5.698-4.353-8.533-6.529c8.676-1.718,16.494-3.007,23.796-4.037
						c0.115-0.029,0.229-0.057,0.344-0.057c17.095-2.463,31.155-3.522,45.959-5.297c1.489-0.172,3.007-0.372,4.524-0.573
						c4.553-0.573,9.249-1.26,14.117-2.119c1.432-0.229,2.864-0.487,4.324-0.745c5.527-1.031,11.339-2.262,17.582-3.751
						l191.796,111.991C2064.221,1328.199,2063.133,1335.272,2057.835,1336.446z" class="color7e8b96 svgShape"></path><path fill="#af9c9c" d="M2052.91 1337.448l-4.152.859-202.906-120.323c1.432-.229 2.864-.487 4.324-.745L2052.91 1337.448zM2028.857 1342.374l-4.095.83-197.551-122.528c1.489-.172 3.007-.372 4.524-.573L2028.857 1342.374z" class="color9ca5af svgShape"></path><polygon fill="#af9c9c" points="2005.577 1347.127 2001.482 1347.957 1806.307 1226.116 1807.825 1223.682" class="color9ca5af svgShape"></polygon><polygon fill="#af9c9c" points="1982.068 1351.938 1977.973 1352.768 1779.477 1228.235 1780.908 1226.03 1781.023 1225.83 1781.252 1225.973" class="color9ca5af svgShape"></polygon><path fill="#af9c9c" d="M1959.131,1356.634l-4.066,0.83l-172.84-108.44c-5.584-4.123-11.11-8.276-16.579-12.427
							l0.601-0.974L1959.131,1356.634z" class="color9ca5af svgShape"></path><path fill="#baa6a6" d="M1723.619,1242.962l214.916,140.567l-95.067-266.503c-2.013-5.643-6.046-10.339-11.32-13.181
					l-162.534-76.349c-1.629-0.878-3.521,0.612-3.049,2.401L1723.619,1242.962z" class="colora6afba svgShape"></path><path fill="#967e7e" d="M1985.553,1240.236l58.102,30.913c3.498,1.861,2.87,7.039-0.973,8.014l-32.977,8.372
					c-2.372,0.602-4.885,0.258-7.006-0.96l-58.166-33.403c-3.248-1.865-2.485-6.74,1.178-7.53l30.865-6.654
					C1979.622,1238.33,1982.803,1238.773,1985.553,1240.236z" class="color7e8b96 svgShape"></path></g></g><g fill="#000000" class="color000000 svgShape"><path fill="#514a4a" d="M868.633 2146.724c5.44 0 9.948-4.307 10.149-9.788 9.041-246.864 80.648-448.016 81.372-450.018 1.902-5.28-.834-11.103-6.112-13.006-5.276-1.898-11.103.832-13.006 6.112-.733 2.034-73.405 206.173-82.562 456.167-.205 5.609 4.174 10.322 9.782 10.527C868.382 2146.722 868.508 2146.724 868.633 2146.724zM1087.464 2041.082c5.353 0 9.835-4.184 10.135-9.595 7.986-143.451 112.741-386.659 113.798-389.099 2.231-5.15-.134-11.132-5.282-13.363-5.154-2.241-11.134.134-13.363 5.282-4.375 10.099-107.256 249.009-115.442 396.049-.313 5.603 3.977 10.399 9.579 10.71C1087.081 2041.078 1087.272 2041.082 1087.464 2041.082zM1525.969 2164.404c.106 0 .213 0 .321-.004 5.609-.175 10.015-4.862 9.841-10.472-2.272-73.172-85.085-426.703-88.609-441.716-1.285-5.464-6.757-8.846-12.214-7.571-5.464 1.283-8.854 6.751-7.571 12.214.859 3.658 85.871 366.549 88.081 437.703C1515.99 2160.06 1520.504 2164.404 1525.969 2164.404zM1237.579 2252.244c4.985 0 9.337-3.67 10.05-8.747 11.976-85.197-17.859-464.302-19.136-480.397-.446-5.594-5.383-9.762-10.931-9.327-5.596.443-9.77 5.337-9.327 10.931.309 3.92 30.936 392.96 19.27 475.962-.78 5.558 3.09 10.696 8.647 11.477C1236.633 2252.21 1237.11 2252.244 1237.579 2252.244z" class="color4a5150 svgShape"></path><g fill="#000000" class="color000000 svgShape"><path fill="#f2e2e2" d="M883.82,1699.627l292.611,87.698c6.189,1.818,12.573,2.94,18.956,3.288
					c7.582,0.387,15.242-0.271,22.708-1.973l244.255-56.325c9.439-2.166,15.822-29.516,0.967-33.965l-207.389-55.513
					c-12.07-4.139-24.952-5.454-37.601-3.791l-318.298,26.383l-14.816,1.238C871.673,1666.474,874.536,1696.842,883.82,1699.627z" class="colore2e8f2 svgShape"></path><path fill="#e0c3c3" d="M883.82,1699.627l292.611,87.698c6.189,1.818,12.573,2.94,18.956,3.288
					c1.199-36.867-16.209-79.768-21.199-81.354c0,0-190.058-38.453-274.159-43.83l-14.816,1.238
					C871.673,1666.474,874.536,1696.842,883.82,1699.627z" class="colorc3cee0 svgShape"></path><path fill="#f9efef" d="M1176.424,1771.836l-292.62-87.68c-9.281-2.781-8.183-16.26,1.425-17.503l333.091-43.094
					c12.661-1.638,25.528-0.34,37.606,3.795l207.375,70.982c9.17,3.139,8.489,16.328-0.955,18.506l-244.246,56.337
					C1204.327,1776.356,1189.964,1775.893,1176.424,1771.836z" class="coloreff3f9 svgShape"></path></g><g fill="#000000" class="color000000 svgShape"><path fill="#f9efef" d="M1197.17,1274.729c-10.281-26.518-215.336-44.634-298.856-58.545
				c-16.554-2.757-31.197,10.916-29.564,27.618l15.735,161.002c1.543,15.788,13.28,28.683,28.853,31.702l227.501,44.091
				c19.706,3.819,38.713-9.264,42.133-29.043C1192.254,1397.863,1207.076,1300.279,1197.17,1274.729z" class="coloreff3f9 svgShape"></path><path fill="#514a4a" d="M1176.426 1797.487c.744 0 1.5-.083 2.255-.253 5.474-1.239 8.904-6.683 7.661-12.157-34.231-150.938-23.079-501.128-22.962-504.649.185-5.608-4.208-10.306-9.818-10.491-5.591-.212-10.306 4.21-10.491 9.818-.48 14.477-11.36 356.321 23.453 509.817C1167.593 1794.287 1171.783 1797.487 1176.426 1797.487zM933.55 1736.267c.759 0 1.53-.083 2.304-.264 5.466-1.269 8.87-6.728 7.601-12.195-22.266-95.96-30.861-486.48-30.944-490.412-.121-5.608-4.59-10.026-10.378-9.941-5.61.119-10.06 4.766-9.939 10.376.344 16.146 8.727 396.575 31.465 494.572C924.748 1733.094 928.93 1736.267 933.55 1736.267z" class="color4a5150 svgShape"></path></g></g></g><g fill="#000000" class="color000000 svgShape"><path fill="#933a3a" d="M3210.559,2090.321c-49.139-146.46-159.322-161.838-193.543-218.504
			c-34.221-56.666-28.449-118.073-63.951-132.935c-4.585-1.919-51.304,181.557-15.756,249.685
			c35.548,68.128,105.288,72.823,101.851,115.36c-2.886,35.715,51.208,273.437,136.11,396.073h213.098
			c8.473-21.512,10.843-42.146,6.111-54.018C3394.479,2445.982,3264.678,2251.623,3210.559,2090.321z" class="color3a937a svgShape"></path><path fill="#701313" d="M3500,1586.422c-7.624-0.41-15.478,3.411-19.072,11.994c-16.091,38.424-16.471,57.51-36.463,70.848
			c-40.425,26.971-61.168,115.795-29.032,217.456s-20.645,144.568-57.509,228.527c-36.863,83.959-82.915,205.262-77.075,214.027
			c0,0,0.002,113.936,77.075,106.836c77.073-7.1,68.999-83.464,108.182-209.135c22.453-72.015,25.496-124.793,33.894-174.876
			V1586.422z" class="color137058 svgShape"></path><path fill="#b56666" d="M3477.006,2422.886c-1.959-19.34-8.956-38.427-23.268-55.213c-2.453-2.898-5.177-5.762-8.161-8.5
				c-0.137-0.215-0.376-0.371-0.568-0.579c-17.365-16.083-34.596-32.414-50.353-49.3c-2.348-2.493-4.641-4.993-6.934-7.492
				l-0.006-0.046c-18.546-20.716-34.605-42.251-45.589-65.066c-1.613-3.234-3.069-6.534-4.417-9.847
				c-4.091-9.887-7.223-20.033-9.07-30.477c-0.643-3.401-1.128-6.867-1.505-10.348c-1.456-13.509-0.825-27.51,2.225-41.995
				c0.571-2.948,1.304-5.916,2.14-8.944c0.948-3.459,2.059-6.938,3.272-10.477c3.417-9.752,7.174-18.989,11.095-27.782
				c1.281-2.99,2.629-5.895,3.981-8.754c4.805-10.109,9.786-19.684,14.771-28.795c1.57-2.887,3.139-5.773,4.721-8.568
				c18.563-33.303,36.18-61.802,42.234-94.249c0.634-3.327,1.153-6.686,1.445-10.11c1.603-14.167,0.833-29.246-3.045-45.843
				c-1.095-4.83-2.365-9.73-3.645-14.723c-0.831-3.145-1.716-6.284-2.607-9.468c-5.172-18.153-11.432-36.635-17.992-54.43
				c-1.185-3.333-2.424-6.66-3.712-9.934c-5.666-15.029-11.518-29.338-16.972-42.212c-1.804-4.324-3.585-8.465-5.289-12.43
				c-12.404-28.486-21.881-47.589-21.881-47.589s-27.761,14.676-58.637,47.743c-2.095,2.209-4.172,4.555-6.298,6.954
				c-12.114,13.801-24.436,30.366-35.445,49.97c-1.367,2.304-2.619,4.641-3.866,7.023c-9.379,17.638-17.699,37.604-23.958,59.96
				c-0.934,3.132-1.759,6.251-2.518,9.455c-2.839,11.304-5.164,23.194-6.808,35.696c-0.376,2.738-0.759,5.431-1.146,8.078
				c-0.497,3.542-0.999,7.039-1.567,10.45c-3.898,24.522-8.455,45.507-13.048,63.99c-0.845,3.4-1.701,6.708-2.569,9.925
				c-20.52,78.792-39.205,110.672,4.275,182.265c18.9,31.114,36.681,47.887,52.597,59.834c3.276,2.424,6.42,4.679,9.487,6.758
				c16.319,11.201,30.182,19.04,40.503,35.625c2.825,4.569,5.399,9.771,7.707,15.936c3.47,9.315,6.315,20.703,8.373,35.065
				c2.109,14.774,1.69,30.929,0.214,47.447c-0.277,3.097-0.602,6.247-0.933,9.351c-1.559,14.069-3.661,28.205-5.537,41.943
				c-0.374,3.202-0.808,6.365-1.187,9.521c-1.604,13.167-2.714,25.763-2.55,37.298h168.176c8.645-19.66,15.049-43.445,14.514-67.449
				C3477.583,2429.311,3477.348,2426.092,3477.006,2422.886z" class="color66b58b svgShape"></path><path fill="#933a3a" d="M3272.942 1764.41c6.338 3.576 11.452 6.607 13.852 7.748 11.059 5.217 22.757 11.144 35.798 12.357 17.049 1.55 29.813-7.459 42.456-14.782-1.803-4.324-3.585-8.465-5.289-12.43-12.714 10.302-13.586 19.692-35.332 18.028-13.735-1.034-28.023-9.191-39.068-14.735-2.057-1.044-4.11-2.042-6.118-3.139C3277.146 1759.665 3275.068 1762.011 3272.942 1764.41zM3233.631 1821.403c20.301 8.665 40.292 19.271 63.638 18.74 20.106-.453 38.279-8.045 57.224-13.412 10.858-3.064 21.137-4.572 31.239-4.851-1.185-3.333-2.424-6.66-3.712-9.934-1.319.025-2.681.147-3.983.309-25.327 2.772-47.975 15.142-73.159 18.174-25.244 2.994-46.209-7.027-67.38-16.048C3236.13 1816.684 3234.878 1819.021 3233.631 1821.403zM3207.155 1890.818c19.18 7.18 39.519 11.709 61.157 11.623 30.172-.125 56.501-12.58 85.747-17.509 17.909-3.058 35.539-2.6 52.272.845-.831-3.145-1.716-6.284-2.607-9.468-25.801-3.713-52.809-.732-81.112 6.91-38.158 10.35-70.537 13.116-107.342.188-1.898-.646-3.748-1.345-5.597-2.043C3208.739 1884.495 3207.914 1887.614 3207.155 1890.818zM3197.633 1945.042c9.446 1.102 18.664 3.021 28.588 6.198 9.924 3.177 19.817 6.544 30.325 8.21 26.009 4.058 45.472-6.896 69.883-13.498 31.719-8.53 60.964-3.25 85.146 10.502.634-3.327 1.153-6.686 1.445-10.11-29.677-14.972-65.066-17.82-102.569-4.859-21.442 7.441-39.059 12.411-61.744 6.734-14.726-3.695-28.325-9.85-43.443-12.707-2.087-.391-4.054-.704-6.064-.918C3198.704 1938.134 3198.201 1941.63 3197.633 1945.042zM3182.017 2018.956c24.336 7.885 50.737 14.215 72.783 11.201 21.238-2.868-14.871-14.629 36.913-3.514 11.94 2.556 24.531 9.903 35.376 14.73 12.706 5.616 25.24 11.625 37.532 17.896 1.57-2.886 3.139-5.773 4.721-8.568-9.58-4.844-19.247-9.491-29.058-13.982-17.289-7.925-37.177-19.471-56.985-22.396-19.423-2.926-37.359 7.467-58.135 4.291-13.594-2.118-27.19-5.582-40.577-9.583C3183.741 2012.431 3182.885 2015.74 3182.017 2018.956zM3198.376 2073.542c14.79 15.753 34.702 24.837 59.319 24.334 21.273-.366 42.201-7.511 63.479-6.068 8.776.582 17.031 2.295 24.695 5.01 1.281-2.99 2.629-5.895 3.981-8.754-10.763-3.723-22.413-5.711-34.741-5.62-40.237.26-78.46 16.744-107.975-14.677C3202.881 2063.238 3194.063 2068.973 3198.376 2073.542zM3171.091 2132.895c29.549-5.152 45.475 27.305 77.133 22.727 15.753-2.233 30.08-9.301 46.062-11.47 11.864-1.611 23.607-1.537 35.074-.129.571-2.948 1.304-5.916 2.14-8.944-20.235-2.362-40.704-.843-61.65 4.82-13.053 3.569-28.921 8.879-42.685 5.39-9.154-2.298-16.813-11.186-24.637-15.644-10.727-6.094-19.468-8.165-32.572-5.889C3163.052 2124.936 3164.133 2134.083 3171.091 2132.895zM3194.269 2206.914c29.047-3.419 56.131 16.841 85.391 8.476 8.082-2.348 11.697-6.51 18.064-10.688 10.501-6.825 20.578-8.633 30.916-8.338-.643-3.401-1.128-6.867-1.505-10.347-11.497-.755-22.487.795-33.185 8.248-25.914 18.02-37.846 12.864-64.981 6.393-12.094-2.907-23.128-4.369-35.834-2.885C3186.125 2198.55 3187.259 2207.691 3194.269 2206.914zM3238.888 2261.055c3.275 2.424 6.42 4.679 9.487 6.758 17.577-11.509 29.235-26.321 55.351-29.84 12.461-1.686 25.434-1.903 38.402-1.285-1.613-3.234-3.069-6.534-4.417-9.847-28.267-.947-56.455 2.736-77.71 17.904C3252.153 2250.313 3246.278 2256.24 3238.888 2261.055zM3288.878 2303.439c2.825 4.568 5.399 9.771 7.707 15.936 15.563 6.886 31.47 15.214 49.645 15.186 19.771-.041 33.945-14.561 48.426-25.268-2.348-2.493-4.641-4.993-6.934-7.493-2.351 1.916-4.68 4.015-7.112 6.173C3342.418 2342.459 3321.24 2314.738 3288.878 2303.439zM3304.239 2411.238c.95.114 1.895.183 2.841.251 27.941 1.869 46.829-7.064 67.75-22.701 19.461-14.527 34.281-21.61 61.287-21.063 6.238.107 11.982.23 17.622-.052-2.453-2.898-5.177-5.762-8.161-8.5-19.346.359-38.316-2.02-57.023 8.376-30.041 16.722-45.007 37.281-83.382 34.34C3304.896 2404.984 3304.57 2408.134 3304.239 2411.238zM3297.515 2462.702c13.909-2.004 28.587.861 42.282 1.575 22.014 1.166 37.532-3.405 55.278-14.888 18.508-11.996 34.989-20.352 59.156-19.593 7.906.226 15.745 1.248 23.423 2.755-.071-3.239-.306-6.459-.648-9.665-13.117-2.271-26.581-3.338-40.035-1.668-26.697 3.267-41.895 20.188-65.32 29.406-24.27 9.509-48.307-.409-72.948 2.556C3298.328 2456.383 3297.895 2459.545 3297.515 2462.702z" class="color3a937a svgShape"></path><g fill="#000000" class="color000000 svgShape"><path fill="#933a3a" d="M3500,2500v-543.553c-8.86,12.788-16.962,27.099-23.81,43.086
				c-1.888,4.421-3.73,8.98-5.388,13.678c-2.395,6.586-4.559,13.448-6.494,20.54c-4.835,17.823-8.612,34.862-11.559,51.119
				c-0.599,3.362-1.151,6.678-1.704,9.947c-2.164,13.263-3.73,25.974-4.882,38.27c-0.322,3.362-0.598,6.724-0.829,9.994
				c-1.105,14.691-1.566,28.645-1.566,42.046c-0.046,3.362,0,6.724,0.092,10.04c0.323,24.961,2.119,47.803,3.961,68.988
				c0.322,3.868,0.691,7.691,1.013,11.421c1.75,19.526,3.362,37.718,3.684,54.941c0.046,2.257,0.092,4.467,0.092,6.678
				c0,1.428-0.046,2.901-0.138,4.329c-0.691,14.138-4.882,28.737-11.007,43.29c-1.382,3.316-2.901,6.677-4.513,9.993
				c-2.257,4.79-4.697,9.579-7.322,14.276c-1.428,2.717-2.948,5.389-4.467,8.105c-9.118,15.796-19.158,30.994-27.954,44.764
				c-2.073,3.224-4.099,6.401-6.033,9.441c-7.014,11.303-11.395,20.624-13.682,28.606H3500z" class="color3a937a svgShape"></path><path fill="#b56666" d="M3500 2037.843c-12.637-9.477-21.806-22.402-23.81-38.311-1.888 4.421-3.73 8.98-5.388 13.678 5.718 13.953 16.66 26.307 29.198 35.375V2037.843zM3500 2106.286c-19.448 1.982-36.293-1.225-41.771-18.331-.875-2.671-3.316-3.546-5.48-3.085-2.395.46-4.375 2.533-3.408 5.526.507 1.566 1.059 3.039 1.704 4.421 8.552 19.483 27.508 22.107 48.955 19.229V2106.286zM3500 2151.811c-11.06 1.262-21.877.758-32.606-4.862-7.599-3.96-14.092-9.303-21.231-13.862-.322 3.362-.598 6.724-.829 9.994 14.046 8.796 26.48 18.698 44.718 18.836 3.342.024 6.655-.182 9.948-.536V2151.811zM3500 2194.047c-19.341 1.965-38.641-1.262-56.231-8.919-.046 3.362 0 6.724.092 10.04 11.606 4.651 23.948 7.461 36.935 8.382 6.337.424 12.791.334 19.205-.261V2194.047zM3500 2268.242c-16.925 6.708-33.129 8.557-52.178-4.087.322 3.868.691 7.691 1.013 11.421 12.158 6.678 25.468 9.671 39.698 7.276 3.925-.657 7.732-1.901 11.468-3.459V2268.242zM3500 2325.041c-16.518 9.952-33.943 15.695-47.481 5.476.046 2.257.092 4.467.092 6.678 0 1.428-.046 2.901-.138 4.329 14.76 7.765 31.531 2.897 47.527-6.064V2325.041zM3500 2360.784c-19.171 9.103-37.838 23.074-58.534 24.03-1.382 3.316-2.901 6.677-4.513 9.993 9.349.967 18.836-.368 28.461-4.237 11.376-4.551 22.801-12.918 34.586-19.394V2360.784zM3500 2446.003c-11.561-4.556-21.881-9.764-27.448-12.465-14.829-7.276-29.106-15.474-42.922-24.454-1.428 2.717-2.948 5.389-4.467 8.105 23.503 15.35 48.495 28.801 74.837 38.228V2446.003zM3500 2473.44c-10.51-2.033-21.396-.681-32.468 4.079-9.257 3.914-18.329 11.191-28.921 10.961-12.711-.231-22.29-9.579-31.086-17.27-3.454-3.04-6.908-6.125-10.316-9.257-2.073 3.224-4.099 6.401-6.033 9.441 12.296 11.836 25.744 22.474 39.744 25.375 9.303 1.98 17.408-.138 25.974-3.822 16.034-6.886 28.8-13.001 43.106-9.948V2473.44z" class="color66b58b svgShape"></path></g><g fill="#000000" class="color000000 svgShape"><path fill="#701313" d="M3298.794,2385.774c-5.375-15.412-12.56-30.879-21.391-46.072
				c-2.139-3.675-4.333-7.35-6.691-10.969c-8.776-13.877-18.922-27.369-30.221-40.313c-3.017-3.51-6.198-7.02-9.489-10.421
				c-12.067-12.78-25.23-24.791-39.436-35.706c-4.443-3.456-8.94-6.801-13.548-9.982c-7.404-5.156-15.083-10.037-22.926-14.589
				c-10.037-5.814-18.264-10.585-25.12-14.809c-3.839-2.358-7.185-4.498-10.202-6.582c-17.606-12.176-22.103-20.678-26.162-40.862
				c-0.768-3.565-1.481-7.514-2.249-11.902c-2.578-14.48-5.759-33.896-12.122-61.375c-0.877-3.839-1.81-7.569-2.797-11.189
				c-0.932-3.51-1.92-6.911-2.907-10.147c-8.611-27.808-19.636-46.73-33.567-59.948c-3.017-2.852-6.088-5.375-9.379-7.733
				c-11.957-8.611-25.779-14.096-41.794-18.045c-4.991-1.261-10.147-2.358-15.577-3.291c-16.893-3.071-35.871-5.101-57.152-7.569
				c-0.768-0.11-1.535-0.164-2.303-0.274c-4.223-0.549-8.172-1.261-11.847-2.084c-72.619-15.796-45.798-74.757-53.531,32.36
				c-0.22,3.236-0.384,6.417-0.549,9.489c-0.164,3.785-0.219,7.459-0.274,11.024c-0.164,22.762,2.413,42.013,7.459,58.851
				c1.152,4.059,2.523,7.953,4.004,11.738c9.159,23.53,23.584,42.287,42.178,59.894c2.633,2.578,5.43,5.101,8.227,7.569
				c8.337,7.35,17.332,14.589,27.04,21.939c3.126,2.413,6.307,4.827,9.598,7.295c8.063,6.033,16.509,12.231,25.285,18.703
				c8.995,6.692,17.332,12.78,25.01,18.539c3.51,2.578,6.856,5.101,10.092,7.569c15.247,11.738,27.698,22.213,38.174,33.731
				c2.523,2.742,4.937,5.539,7.24,8.447c14.37,18.155,24.626,39.71,33.183,71.85c0.933,3.455,1.865,7.075,2.742,10.805
				c2.633,10.969,5.101,23.036,7.514,36.528c0.439,2.413,0.878,4.937,1.317,7.459c0.219,1.261,0.438,2.523,0.713,3.784
				c1.975,10.531,4.662,20.458,7.843,29.728c1.481,4.388,3.126,8.611,4.881,12.67c8.282,19.745,18.977,36.419,30.495,50.35
				c2.238,2.68,4.489,5.271,6.757,7.766h151.354c2.158-4.288,4.012-8.726,5.554-13.306c1.919-5.869,3.401-11.957,4.388-18.209
				c2.742-16.948,1.974-35.267-1.865-54.189C3304.882,2404.916,3302.195,2395.373,3298.794,2385.774z" class="color137058 svgShape"></path><path fill="#a07c7c" d="M2847.562 2014.785c10.531-1.426 21.171-4.278 31.757-7.789 10.805-3.565 14.26-5.485 20.403-14.589 3.84-5.704 4.552-14.973 8.282-20.952 1.645-2.688 3.565-5.211 5.759-7.459-4.223-.549-8.172-1.261-11.847-2.084-2.468 3.236-4.772 6.801-6.911 10.641-8.611 15.357-13.547 23.091-31.482 27.808-5.321 1.426-10.531 2.578-15.687 3.401C2847.672 2007.545 2847.617 2011.22 2847.562 2014.785zM2855.021 2073.636c1.152 4.059 2.523 7.953 4.004 11.738 24.681-9.05 49.418-18.703 70.973-31.647 10.86-6.527 16.893-13.273 21.335-25.12 3.51-9.489-1.152-14.534 4.882-26.601 6.472-13.109 19.471-20.897 32.58-26.875-4.991-1.261-10.147-2.359-15.577-3.291-14.699 9.489-23.914 21.226-31.757 41.794-7.075 18.539-13.602 29.453-31.537 37.406-11.683 5.156-23.639 9.763-35.486 14.644C2867.966 2068.316 2861.493 2071.004 2855.021 2073.636zM2901.203 2145.267c2.633 2.578 5.43 5.101 8.227 7.569 6.582-4.497 12.505-10.092 17.606-16.783 7.843-10.312 11.024-23.255 20.129-32.58 13.492-13.712 27.972-8.611 44.426-13.109 16.783-4.607 24.462-16.509 21.939-33.786-.932-6.417-4.662-12.231-5.595-18.484-2.523-17.222 7.405-28.302 22.378-34.17 3.675-1.426 6.746-2.139 9.653-3.017-3.017-2.852-6.088-5.375-9.379-7.733-12.78 2.797-27.424-.165-35.048 14.809-3.51 6.801-2.688 14.644-1.371 21.829 1.207 6.198 5.21 12.286 5.924 18.429 1.536 12.889-4.662 27.918-17.442 32.25-18.813 6.362-33.183.11-46.949 18.155-8.501 11.134-11.573 24.901-21.281 35.541C2910.417 2138.576 2905.975 2142.251 2901.203 2145.267zM2936.47 2174.775c3.126 2.413 6.307 4.827 9.598 7.295.932-.878 1.481-2.139 1.371-3.84-1.481-22.433 43.659-15.906 57.535-21.062 8.008-3.017 15.687-8.063 21.72-14.205 21.555-21.939 18.648-64.995 49.747-71.96-.932-3.51-1.92-6.911-2.907-10.147-21.281 5.485-32.415 24.352-41.081 48.102-8.501 23.146-21.007 37.79-46.127 40.368-9.982.987-21.061-1.371-30.77 1.755C2943.436 2154.975 2936.854 2163.258 2936.47 2174.775zM2996.364 2219.312c3.51 2.578 6.856 5.101 10.092 7.569 6.527-2.962 12.724-6.966 18.593-11.847 25.669-21.336 41.301-46.566 68.56-59.565-.768-3.565-1.481-7.514-2.249-11.902-11.408 4.388-22.049 10.695-31.757 19.306C3039.748 2180.425 3022.087 2210.865 2996.364 2219.312zM3044.63 2260.612c2.523 2.742 4.937 5.539 7.24 8.447 11.134-15.741 32.525-21.336 48.266-32.47 10.969-7.789 19.142-24.517 29.837-33.677-3.839-2.358-7.185-4.498-10.202-6.582-7.898 9.324-14.096 22.323-25.175 30.769C3077.703 2239.935 3057.245 2245.309 3044.63 2260.612zM3085.052 2340.909c.933 3.455 1.865 7.075 2.742 10.805 14.206-5.43 26.656-15.083 35.542-28.466 10.256-15.467 8.666-30.989 13.821-47.882 7.843-25.888 30.824-32.305 54.409-33.073-4.443-3.456-8.94-6.801-13.548-9.982-19.087 2.358-36.857 9.543-46.785 27.918-9.269 17.112-5.156 37.406-15.412 54.519C3108.472 2327.033 3097.558 2335.863 3085.052 2340.909zM3095.309 2388.242c.439 2.413.878 4.937 1.317 7.459.219 1.261.439 2.523.713 3.784 26.547-6.143 47.499-37.954 71.741-49.143 14.864-6.911 31.263-10.201 43.549-21.775 10.86-10.256 17.551-28.795 27.863-40.148-3.017-3.51-6.198-7.02-9.489-10.421-6.088 8.172-9.544 18.813-14.645 27.205-16.016 26.382-43.275 28.191-67.353 43.22C3132.77 2358.57 3115.328 2382.922 3095.309 2388.242zM3105.182 2429.214c1.481 4.388 3.126 8.611 4.881 12.67 14.59-16.015 29.179-19.69 52.325-17.441 58.961 5.759 91.76-37.68 115.015-84.74-2.139-3.675-4.333-7.35-6.691-10.969-10.256 22.597-21.884 45.194-40.203 62.142-14.809 13.712-33.512 23.42-54.08 23.749-13.986.219-27.698-4.388-41.685-2.523C3121.362 2413.856 3112.86 2420.219 3105.182 2429.214zM3295.284 2411.663c-3.784 10.531-12.012 16.729-19.635 23.968-8.117 7.679-11.463 16.344-18.593 25.01-26.437 32.141-77.719 46.566-116.497 31.593 2.238 2.68 4.489 5.271 6.757 7.766h69.4c13.517-5.542 26.411-13.252 38.091-22.356 6.143-4.826 10.695-9.708 15.577-15.741 7.514-9.434 19.635-16.619 26.766-25.669 4.772-6.088 7.733-13.712 9.598-21.939-1.865-9.379-4.552-18.923-7.953-28.521C3298.684 2394.714 3298.081 2403.929 3295.284 2411.663zM3282.23 2494.647c-1.463 1.858-2.897 3.637-4.316 5.353h13.96c3.786-4.675 7.928-9.084 12.351-13.306 1.919-5.869 3.401-11.957 4.388-18.209C3298.958 2476.712 3289.689 2485.158 3282.23 2494.647z" class="color7c9fa0 svgShape"></path></g><g fill="#000000" class="color000000 svgShape"><path fill="#933a3a" d="M289.441,2090.321c49.139-146.46,159.322-161.838,193.543-218.504
			c34.221-56.666,28.449-118.073,63.951-132.935c4.585-1.919,51.304,181.557,15.756,249.685
			c-35.548,68.128-105.288,72.823-101.851,115.36c2.886,35.715-51.208,273.437-136.11,396.073H111.632
			c-8.473-21.512-10.843-42.146-6.111-54.018C105.521,2445.982,235.322,2251.623,289.441,2090.321z" class="color3a937a svgShape"></path><path fill="#701313" d="M0,1586.422c7.624-0.41,15.478,3.411,19.072,11.994c16.091,38.424,16.471,57.51,36.463,70.848
			c40.425,26.971,61.168,115.795,29.032,217.456s20.645,144.568,57.509,228.527c36.863,83.959,82.915,205.262,77.075,214.027
			c0,0-0.002,113.936-77.075,106.836c-77.073-7.1-68.999-83.464-108.182-209.135C11.44,2154.96,8.398,2102.181,0,2052.098V1586.422z
			" class="color137058 svgShape"></path><path fill="#b56666" d="M22.994,2422.886c1.959-19.34,8.956-38.427,23.268-55.213c2.453-2.898,5.177-5.762,8.161-8.5
				c0.137-0.215,0.376-0.371,0.568-0.579c17.365-16.083,34.596-32.414,50.353-49.3c2.348-2.493,4.641-4.993,6.934-7.492l0.006-0.046
				c18.546-20.716,34.605-42.251,45.589-65.066c1.613-3.234,3.069-6.534,4.417-9.847c4.091-9.887,7.223-20.033,9.07-30.477
				c0.643-3.401,1.128-6.867,1.505-10.348c1.456-13.509,0.825-27.51-2.225-41.995c-0.571-2.948-1.304-5.916-2.14-8.944
				c-0.948-3.459-2.059-6.938-3.272-10.477c-3.417-9.752-7.174-18.989-11.095-27.782c-1.282-2.99-2.629-5.895-3.981-8.754
				c-4.805-10.109-9.786-19.684-14.771-28.795c-1.57-2.887-3.139-5.773-4.721-8.568c-18.563-33.303-36.18-61.802-42.234-94.249
				c-0.634-3.327-1.153-6.686-1.445-10.11c-1.603-14.167-0.833-29.246,3.045-45.843c1.095-4.83,2.365-9.73,3.645-14.723
				c0.831-3.145,1.716-6.284,2.607-9.468c5.172-18.153,11.432-36.635,17.992-54.43c1.185-3.333,2.424-6.66,3.712-9.934
				c5.666-15.029,11.518-29.338,16.972-42.212c1.804-4.324,3.585-8.465,5.289-12.43c12.404-28.486,21.881-47.589,21.881-47.589
				s27.761,14.676,58.637,47.743c2.095,2.209,4.172,4.555,6.298,6.954c12.114,13.801,24.436,30.366,35.445,49.97
				c1.367,2.304,2.619,4.641,3.866,7.023c9.379,17.638,17.699,37.604,23.958,59.96c0.934,3.132,1.759,6.251,2.518,9.455
				c2.839,11.304,5.164,23.194,6.808,35.696c0.376,2.738,0.758,5.431,1.146,8.078c0.497,3.542,0.999,7.039,1.567,10.45
				c3.898,24.522,8.455,45.507,13.048,63.99c0.845,3.4,1.701,6.708,2.569,9.925c20.52,78.792,39.205,110.672-4.275,182.265
				c-18.9,31.114-36.681,47.887-52.597,59.834c-3.276,2.424-6.42,4.679-9.487,6.758c-16.319,11.201-30.182,19.04-40.503,35.625
				c-2.825,4.569-5.399,9.771-7.707,15.936c-3.47,9.315-6.315,20.703-8.373,35.065c-2.109,14.774-1.69,30.929-0.214,47.447
				c0.277,3.097,0.602,6.247,0.933,9.351c1.559,14.069,3.661,28.205,5.537,41.943c0.374,3.202,0.808,6.365,1.187,9.521
				c1.604,13.167,2.714,25.763,2.55,37.298H36.859c-8.645-19.66-15.049-43.445-14.514-67.449
				C22.417,2429.311,22.652,2426.092,22.994,2422.886z" class="color66b58b svgShape"></path><path fill="#933a3a" d="M227.058 1764.41c-6.338 3.576-11.452 6.607-13.852 7.748-11.059 5.217-22.757 11.144-35.798 12.357-17.049 1.55-29.813-7.459-42.456-14.782 1.803-4.324 3.585-8.465 5.288-12.43 12.714 10.302 13.587 19.692 35.332 18.028 13.735-1.034 28.023-9.191 39.068-14.735 2.057-1.044 4.11-2.042 6.118-3.139C222.854 1759.665 224.932 1762.011 227.058 1764.41zM266.369 1821.403c-20.301 8.665-40.291 19.271-63.638 18.74-20.106-.453-38.279-8.045-57.224-13.412-10.858-3.064-21.137-4.572-31.239-4.851 1.185-3.333 2.424-6.66 3.712-9.934 1.319.025 2.681.147 3.983.309 25.327 2.772 47.975 15.142 73.159 18.174 25.244 2.994 46.209-7.027 67.38-16.048C263.87 1816.684 265.122 1819.021 266.369 1821.403zM292.845 1890.818c-19.18 7.18-39.519 11.709-61.157 11.623-30.172-.125-56.501-12.58-85.747-17.509-17.909-3.058-35.539-2.6-52.272.845.831-3.145 1.716-6.284 2.607-9.468 25.801-3.713 52.809-.732 81.112 6.91 38.158 10.35 70.536 13.116 107.342.188 1.898-.646 3.748-1.345 5.597-2.043C291.261 1884.495 292.086 1887.614 292.845 1890.818zM302.367 1945.042c-9.446 1.102-18.664 3.021-28.588 6.198-9.924 3.177-19.817 6.544-30.325 8.21-26.009 4.058-45.472-6.896-69.883-13.498-31.718-8.53-60.964-3.25-85.146 10.502-.634-3.327-1.153-6.686-1.445-10.11 29.677-14.972 65.066-17.82 102.569-4.859 21.442 7.441 39.059 12.411 61.744 6.734 14.726-3.695 28.325-9.85 43.443-12.707 2.087-.391 4.054-.704 6.064-.918C301.296 1938.134 301.798 1941.63 302.367 1945.042zM317.983 2018.956c-24.336 7.885-50.736 14.215-72.783 11.201-21.238-2.868 14.871-14.629-36.913-3.514-11.941 2.556-24.531 9.903-35.376 14.73-12.706 5.616-25.24 11.625-37.532 17.896-1.57-2.886-3.139-5.773-4.721-8.568 9.58-4.844 19.247-9.491 29.058-13.982 17.289-7.925 37.176-19.471 56.985-22.396 19.423-2.926 37.359 7.467 58.135 4.291 13.594-2.118 27.19-5.582 40.577-9.583C316.259 2012.431 317.116 2015.74 317.983 2018.956zM301.624 2073.542c-14.79 15.753-34.702 24.837-59.319 24.334-21.273-.366-42.201-7.511-63.479-6.068-8.776.582-17.031 2.295-24.695 5.01-1.282-2.99-2.629-5.895-3.982-8.754 10.763-3.723 22.413-5.711 34.741-5.62 40.236.26 78.46 16.744 107.975-14.677C297.119 2063.238 305.937 2068.973 301.624 2073.542zM328.909 2132.895c-29.549-5.152-45.475 27.305-77.133 22.727-15.753-2.233-30.08-9.301-46.062-11.47-11.864-1.611-23.607-1.537-35.074-.129-.571-2.948-1.304-5.916-2.14-8.944 20.235-2.362 40.704-.843 61.65 4.82 13.053 3.569 28.921 8.879 42.685 5.39 9.154-2.298 16.812-11.186 24.637-15.644 10.727-6.094 19.468-8.165 32.571-5.889C336.948 2124.936 335.867 2134.083 328.909 2132.895zM305.731 2206.914c-29.047-3.419-56.13 16.841-85.39 8.476-8.082-2.348-11.697-6.51-18.064-10.688-10.501-6.825-20.578-8.633-30.916-8.338.643-3.401 1.128-6.867 1.505-10.347 11.497-.755 22.487.795 33.185 8.248 25.914 18.02 37.846 12.864 64.981 6.393 12.094-2.907 23.128-4.369 35.834-2.885C313.875 2198.55 312.741 2207.691 305.731 2206.914zM261.112 2261.055c-3.275 2.424-6.42 4.679-9.487 6.758-17.577-11.509-29.235-26.321-55.351-29.84-12.461-1.686-25.434-1.903-38.402-1.285 1.613-3.234 3.069-6.534 4.417-9.847 28.267-.947 56.455 2.736 77.71 17.904C247.847 2250.313 253.722 2256.24 261.112 2261.055zM211.122 2303.439c-2.825 4.568-5.399 9.771-7.707 15.936-15.563 6.886-31.47 15.214-49.645 15.186-19.771-.041-33.945-14.561-48.426-25.268 2.348-2.493 4.641-4.993 6.934-7.493 2.351 1.916 4.68 4.015 7.111 6.173C157.582 2342.459 178.76 2314.738 211.122 2303.439zM195.761 2411.238c-.951.114-1.895.183-2.841.251-27.941 1.869-46.829-7.064-67.75-22.701-19.461-14.527-34.282-21.61-61.287-21.063-6.238.107-11.982.23-17.621-.052 2.453-2.898 5.177-5.762 8.161-8.5 19.346.359 38.316-2.02 57.023 8.376 30.041 16.722 45.007 37.281 83.382 34.34C195.105 2404.984 195.43 2408.134 195.761 2411.238zM202.485 2462.702c-13.909-2.004-28.587.861-42.282 1.575-22.014 1.166-37.533-3.405-55.278-14.888-18.508-11.996-34.989-20.352-59.156-19.593-7.905.226-15.745 1.248-23.423 2.755.071-3.239.306-6.459.649-9.665 13.117-2.271 26.581-3.338 40.035-1.668 26.697 3.267 41.895 20.188 65.32 29.406 24.27 9.509 48.307-.409 72.949 2.556C201.672 2456.383 202.105 2459.545 202.485 2462.702z" class="color3a937a svgShape"></path><g fill="#000000" class="color000000 svgShape"><path fill="#933a3a" d="M0,2500v-543.553c8.86,12.788,16.962,27.099,23.81,43.086c1.888,4.421,3.73,8.98,5.388,13.678
				c2.395,6.586,4.559,13.448,6.494,20.54c4.835,17.823,8.612,34.862,11.559,51.119c0.599,3.362,1.151,6.678,1.704,9.947
				c2.164,13.263,3.73,25.974,4.882,38.27c0.322,3.362,0.598,6.724,0.829,9.994c1.105,14.691,1.566,28.645,1.566,42.046
				c0.046,3.362,0,6.724-0.092,10.04c-0.323,24.961-2.119,47.803-3.961,68.988c-0.322,3.868-0.691,7.691-1.013,11.421
				c-1.75,19.526-3.362,37.718-3.684,54.941c-0.046,2.257-0.092,4.467-0.092,6.678c0,1.428,0.046,2.901,0.138,4.329
				c0.691,14.138,4.882,28.737,11.007,43.29c1.382,3.316,2.901,6.677,4.513,9.993c2.257,4.79,4.697,9.579,7.322,14.276
				c1.428,2.717,2.947,5.389,4.467,8.105c9.118,15.796,19.158,30.994,27.954,44.764c2.073,3.224,4.099,6.401,6.033,9.441
				c7.014,11.303,11.395,20.624,13.682,28.606H0z" class="color3a937a svgShape"></path><path fill="#b56666" d="M0 2037.843c12.637-9.477 21.806-22.402 23.81-38.311 1.888 4.421 3.73 8.98 5.388 13.678-5.718 13.953-16.66 26.307-29.198 35.375V2037.843zM0 2106.286c19.448 1.982 36.293-1.225 41.771-18.331.875-2.671 3.316-3.546 5.48-3.085 2.395.46 4.375 2.533 3.408 5.526-.507 1.566-1.059 3.039-1.704 4.421C40.403 2114.3 21.448 2116.924 0 2114.046V2106.286zM0 2151.811c11.06 1.262 21.877.758 32.606-4.862 7.599-3.96 14.092-9.303 21.231-13.862.322 3.362.598 6.724.829 9.994-14.046 8.796-26.481 18.698-44.718 18.836-3.342.024-6.655-.182-9.948-.536V2151.811zM0 2194.047c19.341 1.965 38.641-1.262 56.231-8.919.046 3.362 0 6.724-.092 10.04-11.606 4.651-23.948 7.461-36.935 8.382-6.337.424-12.791.334-19.205-.261V2194.047zM0 2268.242c16.925 6.708 33.129 8.557 52.178-4.087-.322 3.868-.691 7.691-1.013 11.421-12.158 6.678-25.468 9.671-39.698 7.276-3.925-.657-7.732-1.901-11.468-3.459V2268.242zM0 2325.041c16.518 9.952 33.943 15.695 47.481 5.476-.046 2.257-.092 4.467-.092 6.678 0 1.428.046 2.901.138 4.329-14.76 7.765-31.531 2.897-47.527-6.064V2325.041zM0 2360.784c19.171 9.103 37.838 23.074 58.534 24.03 1.382 3.316 2.901 6.677 4.513 9.993-9.349.967-18.836-.368-28.461-4.237C23.21 2386.02 11.785 2377.652 0 2371.177V2360.784zM0 2446.003c11.561-4.556 21.881-9.764 27.448-12.465 14.829-7.276 29.106-15.474 42.922-24.454 1.428 2.717 2.947 5.389 4.467 8.105-23.503 15.35-48.495 28.801-74.837 38.228V2446.003zM0 2473.44c10.51-2.033 21.396-.681 32.468 4.079 9.257 3.914 18.329 11.191 28.921 10.961 12.711-.231 22.29-9.579 31.086-17.27 3.454-3.04 6.908-6.125 10.316-9.257 2.073 3.224 4.099 6.401 6.033 9.441-12.296 11.836-25.744 22.474-39.744 25.375-9.303 1.98-17.408-.138-25.974-3.822-16.034-6.886-28.8-13.001-43.106-9.948V2473.44z" class="color66b58b svgShape"></path></g><g fill="#000000" class="color000000 svgShape"><path fill="#701313" d="M201.206,2385.774c5.375-15.412,12.56-30.879,21.391-46.072c2.139-3.675,4.333-7.35,6.691-10.969
				c8.776-13.877,18.922-27.369,30.221-40.313c3.017-3.51,6.198-7.02,9.488-10.421c12.067-12.78,25.23-24.791,39.436-35.706
				c4.443-3.456,8.94-6.801,13.548-9.982c7.404-5.156,15.083-10.037,22.926-14.589c10.037-5.814,18.264-10.585,25.12-14.809
				c3.839-2.358,7.185-4.498,10.202-6.582c17.606-12.176,22.103-20.678,26.162-40.862c0.768-3.565,1.481-7.514,2.249-11.902
				c2.578-14.48,5.759-33.896,12.122-61.375c0.877-3.839,1.81-7.569,2.797-11.189c0.932-3.51,1.92-6.911,2.907-10.147
				c8.611-27.808,19.636-46.73,33.567-59.948c3.017-2.852,6.088-5.375,9.379-7.733c11.957-8.611,25.779-14.096,41.794-18.045
				c4.991-1.261,10.147-2.358,15.577-3.291c16.893-3.071,35.871-5.101,57.152-7.569c0.768-0.11,1.535-0.164,2.303-0.274
				c4.223-0.549,8.172-1.261,11.847-2.084c72.619-15.796,45.798-74.757,53.531,32.36c0.22,3.236,0.384,6.417,0.549,9.489
				c0.164,3.785,0.219,7.459,0.274,11.024c0.164,22.762-2.413,42.013-7.459,58.851c-1.152,4.059-2.523,7.953-4.004,11.738
				c-9.159,23.53-23.584,42.287-42.178,59.894c-2.633,2.578-5.43,5.101-8.227,7.569c-8.337,7.35-17.332,14.589-27.04,21.939
				c-3.126,2.413-6.307,4.827-9.598,7.295c-8.063,6.033-16.509,12.231-25.285,18.703c-8.995,6.692-17.332,12.78-25.01,18.539
				c-3.51,2.578-6.856,5.101-10.092,7.569c-15.247,11.738-27.698,22.213-38.174,33.731c-2.523,2.742-4.937,5.539-7.24,8.447
				c-14.37,18.155-24.626,39.71-33.183,71.85c-0.933,3.455-1.865,7.075-2.742,10.805c-2.633,10.969-5.101,23.036-7.514,36.528
				c-0.439,2.413-0.878,4.937-1.317,7.459c-0.219,1.261-0.438,2.523-0.713,3.784c-1.975,10.531-4.662,20.458-7.843,29.728
				c-1.481,4.388-3.126,8.611-4.881,12.67c-8.282,19.745-18.977,36.419-30.495,50.35c-2.238,2.68-4.489,5.271-6.757,7.766H201.331
				c-2.158-4.288-4.012-8.726-5.554-13.306c-1.919-5.869-3.401-11.957-4.388-18.209c-2.742-16.948-1.974-35.267,1.865-54.189
				C195.118,2404.916,197.805,2395.373,201.206,2385.774z" class="color137058 svgShape"></path><path fill="#a07c7c" d="M652.438 2014.785c-10.531-1.426-21.171-4.278-31.757-7.789-10.805-3.565-14.261-5.485-20.404-14.589-3.839-5.704-4.552-14.973-8.282-20.952-1.645-2.688-3.565-5.211-5.759-7.459 4.223-.549 8.172-1.261 11.847-2.084 2.468 3.236 4.772 6.801 6.911 10.641 8.611 15.357 13.548 23.091 31.483 27.808 5.32 1.426 10.531 2.578 15.687 3.401C652.328 2007.545 652.383 2011.22 652.438 2014.785zM644.979 2073.636c-1.152 4.059-2.523 7.953-4.004 11.738-24.682-9.05-49.418-18.703-70.973-31.647-10.86-6.527-16.893-13.273-21.335-25.12-3.51-9.489 1.152-14.534-4.882-26.601-6.472-13.109-19.471-20.897-32.58-26.875 4.991-1.261 10.147-2.359 15.577-3.291 14.7 9.489 23.914 21.226 31.757 41.794 7.075 18.539 13.602 29.453 31.537 37.406 11.683 5.156 23.639 9.763 35.486 14.644C632.034 2068.316 638.507 2071.004 644.979 2073.636zM598.797 2145.267c-2.633 2.578-5.43 5.101-8.227 7.569-6.581-4.497-12.505-10.092-17.606-16.783-7.843-10.312-11.024-23.255-20.129-32.58-13.492-13.712-27.972-8.611-44.426-13.109-16.783-4.607-24.462-16.509-21.939-33.786.932-6.417 4.662-12.231 5.595-18.484 2.523-17.222-7.405-28.302-22.378-34.17-3.675-1.426-6.746-2.139-9.653-3.017 3.017-2.852 6.088-5.375 9.379-7.733 12.78 2.797 27.424-.165 35.048 14.809 3.51 6.801 2.688 14.644 1.371 21.829-1.207 6.198-5.211 12.286-5.924 18.429-1.536 12.889 4.662 27.918 17.442 32.25 18.813 6.362 33.183.11 46.95 18.155 8.501 11.134 11.573 24.901 21.281 35.541C589.582 2138.576 594.025 2142.251 598.797 2145.267zM563.53 2174.775c-3.126 2.413-6.307 4.827-9.598 7.295-.932-.878-1.481-2.139-1.371-3.84 1.481-22.433-43.659-15.906-57.535-21.062-8.008-3.017-15.686-8.063-21.72-14.205-21.555-21.939-18.648-64.995-49.747-71.96.932-3.51 1.92-6.911 2.907-10.147 21.281 5.485 32.415 24.352 41.081 48.102 8.501 23.146 21.007 37.79 46.127 40.368 9.982.987 21.061-1.371 30.769 1.755C556.564 2154.975 563.146 2163.258 563.53 2174.775zM503.636 2219.312c-3.51 2.578-6.856 5.101-10.092 7.569-6.527-2.962-12.724-6.966-18.593-11.847-25.669-21.336-41.3-46.566-68.56-59.565.768-3.565 1.481-7.514 2.249-11.902 11.408 4.388 22.049 10.695 31.757 19.306C460.252 2180.425 477.913 2210.865 503.636 2219.312zM455.37 2260.612c-2.523 2.742-4.936 5.539-7.24 8.447-11.134-15.741-32.525-21.336-48.266-32.47-10.97-7.789-19.142-24.517-29.837-33.677 3.839-2.358 7.185-4.498 10.202-6.582 7.898 9.324 14.096 22.323 25.175 30.769C422.297 2239.935 442.755 2245.309 455.37 2260.612zM414.948 2340.909c-.933 3.455-1.865 7.075-2.742 10.805-14.206-5.43-26.656-15.083-35.542-28.466-10.257-15.467-8.666-30.989-13.821-47.882-7.843-25.888-30.824-32.305-54.409-33.073 4.443-3.456 8.94-6.801 13.548-9.982 19.087 2.358 36.857 9.543 46.785 27.918 9.269 17.112 5.156 37.406 15.412 54.519C391.527 2327.033 402.442 2335.863 414.948 2340.909zM404.691 2388.242c-.439 2.413-.878 4.937-1.317 7.459-.219 1.261-.439 2.523-.713 3.784-26.546-6.143-47.498-37.954-71.741-49.143-14.864-6.911-31.263-10.201-43.549-21.775-10.86-10.256-17.551-28.795-27.863-40.148 3.017-3.51 6.198-7.02 9.489-10.421 6.088 8.172 9.544 18.813 14.645 27.205 16.015 26.382 43.275 28.191 67.353 43.22C367.23 2358.57 384.672 2382.922 404.691 2388.242zM394.818 2429.214c-1.481 4.388-3.126 8.611-4.881 12.67-14.59-16.015-29.179-19.69-52.325-17.441-58.961 5.759-91.76-37.68-115.015-84.74 2.139-3.675 4.333-7.35 6.691-10.969 10.256 22.597 21.884 45.194 40.203 62.142 14.809 13.712 33.512 23.42 54.08 23.749 13.986.219 27.698-4.388 41.684-2.523C378.638 2413.856 387.14 2420.219 394.818 2429.214zM204.716 2411.663c3.784 10.531 12.012 16.729 19.636 23.968 8.117 7.679 11.463 16.344 18.593 25.01 26.437 32.141 77.719 46.566 116.497 31.593-2.238 2.68-4.489 5.271-6.757 7.766h-69.4c-13.517-5.542-26.411-13.252-38.091-22.356-6.143-4.826-10.695-9.708-15.577-15.741-7.514-9.434-19.635-16.619-26.766-25.669-4.772-6.088-7.733-13.712-9.598-21.939 1.865-9.379 4.552-18.923 7.953-28.521C201.316 2394.714 201.919 2403.929 204.716 2411.663zM217.77 2494.647c1.463 1.858 2.897 3.637 4.316 5.353h-13.96c-3.786-4.675-7.928-9.084-12.351-13.306-1.919-5.869-3.401-11.957-4.388-18.209C201.042 2476.712 210.311 2485.158 217.77 2494.647z" class="color7c9fa0 svgShape"></path></g></g></g></svg>