<svg width="30" height="17" viewBox="0 0 30 17" fill="none" xmlns="http://www.w3.org/2000/svg">
    <path d="M13.625 0.175C13.9583 0.175 14.2083 0.283333 14.375 0.5C14.5583 0.699999 14.65 0.974999 14.65 1.325C14.65 1.70833 14.55 2.14167 14.35 2.625C13.7667 3.15833 13.1083 3.86667 12.375 4.75C11.6417 5.63333 10.775 6.73333 9.775 8.05C10.6917 9.55 11.4333 10.6833 12 11.45C12.5667 12.2 13.1083 12.7167 13.625 13C13.8417 13.1167 14.1 13.2167 14.4 13.3C14.7833 13.4167 15.0667 13.5333 15.25 13.65C15.4333 13.7667 15.525 13.9417 15.525 14.175C15.525 14.6417 15.3083 14.9917 14.875 15.225C14.4417 15.4417 13.9167 15.55 13.3 15.55C12.5 15.55 11.7083 15.1083 10.925 14.225C10.1583 13.3417 9.23333 12.025 8.15 10.275C7.1 11.6583 6.225 12.7833 5.525 13.65C4.825 14.5 4.19167 15.1917 3.625 15.725C3.50833 15.825 3.34167 15.9083 3.125 15.975C2.90833 16.025 2.725 16.05 2.575 16.05C2.20833 16.05 1.89167 15.9 1.625 15.6C1.375 15.3 1.24167 14.9917 1.225 14.675C1.225 14.625 1.31667 14.4583 1.5 14.175C1.68333 13.8917 1.96667 13.5667 2.35 13.2C2.76667 12.8833 3.30833 12.3167 3.975 11.5C4.65833 10.6833 5.575 9.525 6.725 8.025L6 6.875C5.36667 5.875 4.9 5.15833 4.6 4.725C4.3 4.29167 4.01667 3.96667 3.75 3.75C3.48333 3.51667 3.2 3.4 2.9 3.4C2.8 3.4 2.64167 3.43333 2.425 3.5C2.225 3.55 2.05833 3.575 1.925 3.575C1.74167 3.575 1.575 3.54167 1.425 3.475C1.00833 3.29167 0.8 3.01667 0.8 2.65C0.8 2.48333 0.833333 2.34167 0.9 2.225C1.03333 1.925 1.30833 1.65 1.725 1.4C2.15833 1.13333 2.74167 0.999999 3.475 0.999999C4.15833 0.999999 4.75 1.175 5.25 1.525C5.75 1.875 6.20833 2.35 6.625 2.95C7.05833 3.55 7.65 4.49167 8.4 5.775C10.05 3.54167 11.2167 2.04167 11.9 1.275C12.3 0.808332 12.6167 0.508333 12.85 0.375C13.0833 0.241666 13.3417 0.175 13.625 0.175ZM23.9418 10.35C23.2918 10.35 22.7418 10.3333 22.2918 10.3C21.8585 10.25 21.2835 10.175 20.5668 10.075L20.5418 12.7C20.5251 13.15 20.5168 13.7917 20.5168 14.625C20.5168 15.0583 20.3918 15.4 20.1418 15.65C19.9085 15.8833 19.6418 16 19.3418 16C18.7918 16 18.3835 15.9333 18.1168 15.8C17.8501 15.65 17.7168 15.3917 17.7168 15.025C17.7168 14.5417 17.7585 13.8583 17.8418 12.975C18.0251 11.075 18.1168 9.125 18.1168 7.125C18.1168 5.25833 18.0585 3.5 17.9418 1.85C17.9585 1.61667 18.0751 1.35 18.2918 1.05C18.5251 0.749999 18.8168 0.583332 19.1668 0.549999C19.5501 0.549999 20.1585 0.483332 20.9918 0.349999C21.8585 0.216666 22.5168 0.15 22.9668 0.15C24.3335 0.15 25.3918 0.283333 26.1418 0.549999C26.9085 0.816665 27.6751 1.25833 28.4418 1.875C29.2751 3.175 29.6918 4.09167 29.6918 4.625C29.6918 5.74167 29.4668 6.73333 29.0168 7.6C28.5668 8.46667 27.9085 9.14167 27.0418 9.625C26.1751 10.1083 25.1418 10.35 23.9418 10.35ZM23.3668 2.275C22.8335 2.275 22.3668 2.30833 21.9668 2.375C21.5835 2.425 21.1168 2.51667 20.5668 2.65C20.6335 4.18333 20.6668 5.3 20.6668 6C20.6668 6.71667 20.6418 7.31667 20.5918 7.8C21.3085 7.95 21.8751 8.05 22.2918 8.1C22.7085 8.13333 23.1751 8.15 23.6918 8.15C24.9251 8.15 25.7918 7.83333 26.2918 7.2C26.8085 6.55 27.0668 5.8 27.0668 4.95C27.0668 4.7 26.9918 4.39167 26.8418 4.025C26.6918 3.65833 26.5585 3.41667 26.4418 3.3C25.9918 2.9 25.5501 2.63333 25.1168 2.5C24.7001 2.35 24.1168 2.275 23.3668 2.275Z" fill="#AD0000"/>
</svg>
