<svg width="96" height="96" viewBox="0 0 96 96" fill="none" xmlns="http://www.w3.org/2000/svg">
<path d="M80.1895 44C80.1895 61.6731 65.8626 76 48.1895 76C30.5163 76 16.1895 61.6731 16.1895 44C16.1895 26.3269 30.5163 12 48.1895 12C65.8626 12 80.1895 26.3269 80.1895 44Z" fill="#BCCCD2"/>
<path fill-rule="evenodd" clip-rule="evenodd" d="M82.5601 44C82.5601 62.9822 67.1719 78.3704 48.1897 78.3704C29.2075 78.3704 13.8193 62.9822 13.8193 44C13.8193 25.0178 29.2075 9.62964 48.1897 9.62964C67.1719 9.62964 82.5601 25.0178 82.5601 44ZM48.1897 76C65.8628 76 80.1897 61.6731 80.1897 44C80.1897 26.3269 65.8628 12 48.1897 12C30.5166 12 16.1897 26.3269 16.1897 44C16.1897 61.6731 30.5166 76 48.1897 76Z" fill="#81A5B0"/>
<path fill-rule="evenodd" clip-rule="evenodd" d="M18.5602 45.1852C17.9056 45.1852 17.375 44.6546 17.375 44C17.375 26.9814 31.1713 13.1852 48.1898 13.1852C48.8444 13.1852 49.375 13.7158 49.375 14.3704C49.375 15.0249 48.8444 15.5556 48.1898 15.5556C32.4804 15.5556 19.7454 28.2906 19.7454 44C19.7454 44.6546 19.2147 45.1852 18.5602 45.1852Z" fill="#D0DEE3"/>
<path fill-rule="evenodd" clip-rule="evenodd" d="M77.8187 42.8148C78.4733 42.8148 79.0039 43.3454 79.0039 44C79.0039 61.0186 65.2076 74.8148 48.1891 74.8148C47.5345 74.8148 47.0039 74.2842 47.0039 73.6296C47.0039 72.9751 47.5345 72.4444 48.1891 72.4444C63.8985 72.4444 76.6335 59.7094 76.6335 44C76.6335 43.3454 77.1642 42.8148 77.8187 42.8148Z" fill="#A2B9C1"/>
<path d="M71.8928 44C71.8928 57.0912 61.2803 67.7037 48.1891 67.7037C35.0979 67.7037 24.4854 57.0912 24.4854 44C24.4854 30.9088 35.0979 20.2963 48.1891 20.2963C61.2803 20.2963 71.8928 30.9088 71.8928 44Z" fill="#C7D4D8"/>
<path fill-rule="evenodd" clip-rule="evenodd" d="M74.2634 44C74.2634 58.4003 62.5896 70.0741 48.1893 70.0741C33.789 70.0741 22.1152 58.4003 22.1152 44C22.1152 29.5997 33.789 17.9259 48.1893 17.9259C62.5896 17.9259 74.2634 29.5997 74.2634 44ZM48.1893 67.7037C61.2805 67.7037 71.893 57.0912 71.893 44C71.893 30.9088 61.2805 20.2963 48.1893 20.2963C35.0981 20.2963 24.4856 30.9088 24.4856 44C24.4856 57.0912 35.0981 67.7037 48.1893 67.7037Z" fill="#81A5B0"/>
<path fill-rule="evenodd" clip-rule="evenodd" d="M48.1895 64.1481C59.317 64.1481 68.3376 55.1275 68.3376 44C68.3376 43.3454 68.8683 42.8148 69.5228 42.8148C70.1774 42.8148 70.708 43.3454 70.708 44C70.708 56.4366 60.6261 66.5185 48.1895 66.5185C47.5349 66.5185 47.0043 65.9879 47.0043 65.3333C47.0043 64.6787 47.5349 64.1481 48.1895 64.1481Z" fill="#B5C3C8"/>
<path fill-rule="evenodd" clip-rule="evenodd" d="M48.1894 23.8519C37.0619 23.8519 28.0413 32.8725 28.0413 44C28.0413 44.6546 27.5106 45.1852 26.8561 45.1852C26.2015 45.1852 25.6709 44.6546 25.6709 44C25.6709 31.5634 35.7528 21.4815 48.1894 21.4815C48.844 21.4815 49.3746 22.0121 49.3746 22.6667C49.3746 23.3213 48.844 23.8519 48.1894 23.8519Z" fill="#D9EAEF"/>
<path d="M11.9654 75.5528L8.91262 69.4472C8.58017 68.7823 9.06366 68 9.80704 68L23.189 68C23.7413 68 24.189 68.4477 24.189 69L24.189 83C24.189 83.5523 23.7413 84 23.189 84L9.80704 84C9.06366 84 8.58017 83.2177 8.91262 82.5528L11.9654 76.4472C12.1062 76.1657 12.1062 75.8343 11.9654 75.5528Z" fill="#C52229"/>
<path d="M84.4126 75.5528L87.4654 69.4472C87.7979 68.7823 87.3144 68 86.571 68L73.189 68C72.6367 68 72.189 68.4477 72.189 69L72.189 83C72.189 83.5523 72.6367 84 73.189 84L86.571 84C87.3144 84 87.7979 83.2177 87.4654 82.5528L84.4126 76.4472C84.2719 76.1657 84.2719 75.8343 84.4126 75.5528Z" fill="#C52229"/>
<path fill-rule="evenodd" clip-rule="evenodd" d="M9.95329 76L7.12411 70.3416C6.12677 68.347 7.57723 66 9.8074 66L23.1894 66C24.8462 66 26.1894 67.3431 26.1894 69L26.1894 83C26.1894 84.6569 24.8462 86 23.1894 86L9.8074 86C7.57723 86 6.12677 83.653 7.12411 81.6584L9.95329 76ZM10.1763 76.4461C10.1765 76.4465 10.1767 76.4468 10.1769 76.4472L11.0713 76L10.1769 76.4472L10.1763 76.4461ZM86.4254 76L89.2546 70.3416C90.252 68.3469 88.8015 66 86.5713 66L73.1894 66C71.5325 66 70.1894 67.3431 70.1894 69L70.1894 83C70.1894 84.6569 71.5325 86 73.1894 86L86.5713 86C88.8015 86 90.252 83.6531 89.2546 81.6584L86.4254 76ZM87.4658 69.4472L84.413 75.5528C84.2722 75.8343 84.2722 76.1657 84.413 76.4472L87.4658 82.5528C87.7982 83.2177 87.3147 84 86.5713 84L73.1894 84C72.6371 84 72.1894 83.5523 72.1894 83L72.1894 69C72.1894 68.4477 72.6371 68 73.1894 68L86.5713 68C87.3147 68 87.7982 68.7823 87.4658 69.4472ZM8.91297 69.4472L11.9658 75.5528C12.1065 75.8343 12.1065 76.1657 11.9658 76.4472L8.91297 82.5528C8.58052 83.2177 9.06401 84 9.8074 84L23.1894 84C23.7416 84 24.1894 83.5523 24.1894 83L24.1894 69C24.1894 68.4477 23.7416 68 23.1894 68L9.8074 68C9.06401 68 8.58052 68.7823 8.91297 69.4472Z" fill="#9B0F15"/>
<path fill-rule="evenodd" clip-rule="evenodd" d="M10.3434 68.9043C10.5266 68.6138 10.846 68.4375 11.1895 68.4375H15.4395C15.9917 68.4375 16.4395 68.8852 16.4395 69.4375C16.4395 69.9898 15.9917 70.4375 15.4395 70.4375H12.7762L14.8416 74.756C15.0799 75.2543 14.8691 75.8513 14.3709 76.0896C13.8727 76.3279 13.2756 76.1172 13.0373 75.619L10.2873 69.869C10.1391 69.5591 10.1603 69.1949 10.3434 68.9043Z" fill="#DF3840"/>
<path d="M76.1895 79L76.1895 65C76.1895 64.4477 75.7417 64 75.1895 64L21.1895 64C20.6372 64 20.1895 64.4477 20.1895 65L20.1895 79C20.1895 79.5523 20.6372 80 21.1895 80L75.1895 80C75.7417 80 76.1895 79.5523 76.1895 79Z" fill="#F1333B"/>
<path fill-rule="evenodd" clip-rule="evenodd" d="M78.1895 65L78.1895 79C78.1895 80.6569 76.8463 82 75.1895 82L21.1895 82C19.5326 82 18.1895 80.6569 18.1895 79L18.1895 65C18.1895 63.3431 19.5326 62 21.1895 62L75.1895 62C76.8463 62 78.1895 63.3431 78.1895 65ZM76.1895 65L76.1895 79C76.1895 79.5523 75.7417 80 75.1895 80L21.1895 80C20.6372 80 20.1895 79.5523 20.1895 79L20.1895 65C20.1895 64.4477 20.6372 64 21.1895 64L75.1895 64C75.7417 64 76.1895 64.4477 76.1895 65Z" fill="#9B0F15"/>
<path d="M73.4268 72.3798C72.8606 72.3798 72.4015 71.9319 72.4015 71.3795C72.4015 70.827 72.8606 70.3792 73.4268 70.3792C73.9931 70.3792 74.4521 70.827 74.4521 71.3795C74.4521 71.9319 73.9931 72.3798 73.4268 72.3798Z" fill="#DB1B24"/>
<path d="M69.5254 71.9795C68.821 71.9795 68.25 71.4224 68.25 70.7352C68.25 70.048 68.821 69.491 69.5254 69.491C70.2298 69.491 70.8008 70.048 70.8008 70.7352C70.8008 71.4224 70.2298 71.9795 69.5254 71.9795Z" fill="#DB1B24"/>
<path d="M71.2637 74.8244C70.9115 74.8244 70.626 74.5458 70.626 74.2022C70.626 73.8586 70.9115 73.5801 71.2637 73.5801C71.6159 73.5801 71.9014 73.8586 71.9014 74.2022C71.9014 74.5458 71.6159 74.8244 71.2637 74.8244Z" fill="#DB1B24"/>
<path d="M70.1631 68.2443C69.8109 68.2443 69.5254 67.9657 69.5254 67.6221C69.5254 67.2785 69.8109 67 70.1631 67C70.5153 67 70.8008 67.2785 70.8008 67.6221C70.8008 67.9657 70.5153 68.2443 70.1631 68.2443Z" fill="#DB1B24"/>
<path d="M66.8125 74.2022C66.4603 74.2022 66.1748 73.9237 66.1748 73.5801C66.1748 73.2365 66.4603 72.9579 66.8125 72.9579C67.1647 72.9579 67.4502 73.2365 67.4502 73.5801C67.4502 73.9237 67.1647 74.2022 66.8125 74.2022Z" fill="#DB1B24"/>
<path d="M66.1748 71.0013C65.8226 71.0013 65.5371 70.7228 65.5371 70.3792C65.5371 70.0356 65.8226 69.757 66.1748 69.757C66.527 69.757 66.8125 70.0356 66.8125 70.3792C66.8125 70.7228 66.527 71.0013 66.1748 71.0013Z" fill="#DB1B24"/>
<path d="M61.8272 78.2181C61.475 78.2181 61.1895 77.9396 61.1895 77.596C61.1895 77.2524 61.475 76.9738 61.8272 76.9738C62.1793 76.9738 62.4648 77.2524 62.4648 77.596C62.4648 77.9396 62.1793 78.2181 61.8272 78.2181Z" fill="#DB1B24"/>
<path d="M74.5147 75.8431C74.1625 75.8431 73.877 75.5646 73.877 75.221C73.877 74.8774 74.1625 74.5988 74.5147 74.5988C74.8668 74.5988 75.1523 74.8774 75.1523 75.221C75.1523 75.5646 74.8668 75.8431 74.5147 75.8431Z" fill="#DB1B24"/>
<path d="M68.4876 77.2056C67.9144 77.2056 67.4498 76.7523 67.4498 76.1931C67.4498 75.6339 67.9144 75.1806 68.4876 75.1806C69.0607 75.1806 69.5254 75.6339 69.5254 76.1931C69.5254 76.7523 69.0607 77.2056 68.4876 77.2056Z" fill="#DB1B24"/>
<path d="M72.9387 78.2181C72.3656 78.2181 71.9009 77.7647 71.9009 77.2056C71.9009 76.6464 72.3656 76.1931 72.9387 76.1931C73.5119 76.1931 73.9766 76.6464 73.9766 77.2056C73.9766 77.7647 73.5119 78.2181 72.9387 78.2181Z" fill="#DB1B24"/>
<path d="M63.8616 76.2273C63.2884 76.2273 62.8238 75.774 62.8238 75.2148C62.8238 74.6556 63.2884 74.2023 63.8616 74.2023C64.4348 74.2023 64.8994 74.6556 64.8994 75.2148C64.8994 75.774 64.4348 76.2273 63.8616 76.2273Z" fill="#DB1B24"/>
<path d="M65.5371 78.5255C65.1849 78.5255 64.8994 78.247 64.8994 77.9034C64.8994 77.5598 65.1849 77.2812 65.5371 77.2812C65.8893 77.2812 66.1748 77.5598 66.1748 77.9034C66.1748 78.247 65.8893 78.5255 65.5371 78.5255Z" fill="#DB1B24"/>
<path fill-rule="evenodd" clip-rule="evenodd" d="M20.8145 65.4375C20.8145 64.8852 21.2622 64.4375 21.8145 64.4375H59.3145C59.8667 64.4375 60.3145 64.8852 60.3145 65.4375C60.3145 65.9898 59.8667 66.4375 59.3145 66.4375H22.8145V73.4375C22.8145 73.9898 22.3667 74.4375 21.8145 74.4375C21.2622 74.4375 20.8145 73.9898 20.8145 73.4375V65.4375Z" fill="#FE666D"/>
<path d="M54.4794 52.5926H41.9178V50.1004L47.8461 43.7818C48.6601 42.8924 49.2601 42.1162 49.6461 41.4533C50.0404 40.7904 50.2376 40.161 50.2376 39.5652C50.2376 38.7513 50.032 38.1136 49.6209 37.6521C49.2097 37.1821 48.6223 36.9472 47.8587 36.9472C47.0364 36.9472 46.3861 37.2325 45.9078 37.8031C45.4379 38.3653 45.2029 39.1079 45.2029 40.031H41.5527C41.5527 38.9149 41.8171 37.8954 42.3457 36.9724C42.8827 36.0493 43.6379 35.3277 44.6113 34.8074C45.5847 34.2788 46.6882 34.0145 47.9217 34.0145C49.8097 34.0145 51.2739 34.4676 52.3145 35.3738C53.3634 36.2801 53.8878 37.5597 53.8878 39.2128C53.8878 40.1191 53.6528 41.0421 53.1829 41.9819C52.713 42.9217 51.9075 44.0168 50.7663 45.2671L46.6 49.6599H54.4794V52.5926Z" fill="#D9EAEF"/>
<path fill-rule="evenodd" clip-rule="evenodd" d="M56.6272 52.5926C56.6272 53.779 55.6655 54.7408 54.4791 54.7408H41.9175C40.7311 54.7408 39.7693 53.779 39.7693 52.5926V50.1004C39.7693 49.5544 39.9773 49.0288 40.3509 48.6306L46.2699 42.322C47.0269 41.4939 47.5123 40.8482 47.7894 40.3724L47.7996 40.355C48.0534 39.9284 48.0892 39.6763 48.0892 39.5653C48.0892 39.3357 48.0599 39.2015 48.0386 39.1356C48.035 39.1244 48.0316 39.115 48.0286 39.1074C47.9942 39.1015 47.9391 39.0954 47.8584 39.0954C47.6978 39.0954 47.6304 39.1224 47.617 39.1283C47.6085 39.1321 47.6027 39.1355 47.5965 39.1403C47.59 39.1452 47.5757 39.157 47.5547 39.1819C47.4843 39.2667 47.3508 39.4799 47.3508 40.031C47.3508 41.2174 46.389 42.1791 45.2026 42.1791H41.5524C40.3661 42.1791 39.4043 41.2174 39.4043 40.031C39.4043 38.5596 39.7573 37.1691 40.4813 35.9048L40.4886 35.8921C41.2318 34.6147 42.2826 33.6176 43.5922 32.9163C44.9131 32.2004 46.3737 31.8663 47.9214 31.8663C50.1349 31.8663 52.167 32.3987 53.7218 33.7512C55.3322 35.1443 56.0357 37.0691 56.0357 39.2128C56.0357 40.502 55.6993 41.7521 55.104 42.9426C54.5084 44.1338 53.5565 45.3962 52.3526 46.7153C52.3434 46.7254 52.334 46.7354 52.3246 46.7453L51.5977 47.5117H54.4791C55.6655 47.5117 56.6272 48.4735 56.6272 49.6599V52.5926ZM46.5998 49.6599L50.766 45.2671C51.9072 44.0168 52.7127 42.9217 53.1827 41.9819C53.6526 41.0421 53.8875 40.1191 53.8875 39.2128C53.8875 37.5598 53.3631 36.2801 52.3142 35.3739C51.2737 34.4676 49.8094 34.0145 47.9214 34.0145C46.6879 34.0145 45.5844 34.2788 44.611 34.8075C43.6377 35.3277 42.8825 36.0493 42.3454 36.9724C42.1772 37.2661 42.0357 37.5696 41.9211 37.8828C41.6753 38.554 41.5524 39.2701 41.5524 40.031H45.2026C45.2026 39.1079 45.4376 38.3653 45.9075 37.8031C46.3858 37.2325 47.0361 36.9472 47.8584 36.9472C48.622 36.9472 49.2094 37.1822 49.6206 37.6521C50.0318 38.1136 50.2373 38.7513 50.2373 39.5653C50.2373 40.161 50.0401 40.7904 49.6458 41.4533C49.2598 42.1162 48.6598 42.8924 47.8458 43.7818L41.9175 50.1004V52.5926H54.4791V49.6599H46.5998Z" fill="#81A5B0"/>
</svg>
