<svg width="96" height="96" viewBox="0 0 96 96" fill="none" xmlns="http://www.w3.org/2000/svg">
<path d="M80.5117 44C80.5117 61.6731 66.1848 76 48.5117 76C30.8386 76 16.5117 61.6731 16.5117 44C16.5117 26.3269 30.8386 12 48.5117 12C66.1848 12 80.5117 26.3269 80.5117 44Z" fill="#FFBB0D"/>
<path fill-rule="evenodd" clip-rule="evenodd" d="M82.8823 44C82.8823 62.9822 67.4942 78.3704 48.512 78.3704C29.5297 78.3704 14.1416 62.9822 14.1416 44C14.1416 25.0178 29.5297 9.62964 48.512 9.62964C67.4942 9.62964 82.8823 25.0178 82.8823 44ZM48.512 76C66.1851 76 80.512 61.6731 80.512 44C80.512 26.3269 66.1851 12 48.512 12C30.8389 12 16.512 26.3269 16.512 44C16.512 61.6731 30.8389 76 48.512 76Z" fill="#E89B05"/>
<path fill-rule="evenodd" clip-rule="evenodd" d="M18.8825 45.1852C18.2279 45.1852 17.6973 44.6546 17.6973 44C17.6973 26.9814 31.4935 13.1852 48.5121 13.1852C49.1666 13.1852 49.6973 13.7158 49.6973 14.3704C49.6973 15.0249 49.1666 15.5556 48.5121 15.5556C32.8027 15.5556 20.0676 28.2906 20.0676 44C20.0676 44.6546 19.537 45.1852 18.8825 45.1852Z" fill="#E8AA0A"/>
<path fill-rule="evenodd" clip-rule="evenodd" d="M78.142 42.8148C78.7965 42.8148 79.3271 43.3454 79.3271 44C79.3271 61.0186 65.5309 74.8148 48.5123 74.8148C47.8578 74.8148 47.3271 74.2842 47.3271 73.6296C47.3271 72.9751 47.8578 72.4444 48.5123 72.4444C64.2218 72.4444 76.9568 59.7094 76.9568 44C76.9568 43.3454 77.4874 42.8148 78.142 42.8148Z" fill="#E8AA0A"/>
<path d="M72.216 44C72.216 57.0912 61.6035 67.7037 48.5123 67.7037C35.4211 67.7037 24.8086 57.0912 24.8086 44C24.8086 30.9088 35.4211 20.2963 48.5123 20.2963C61.6035 20.2963 72.216 30.9088 72.216 44Z" fill="#FFDD28"/>
<path fill-rule="evenodd" clip-rule="evenodd" d="M74.5856 44C74.5856 58.4004 62.9119 70.0741 48.5116 70.0741C34.1113 70.0741 22.4375 58.4004 22.4375 44C22.4375 29.5997 34.1113 17.926 48.5116 17.926C62.9119 17.926 74.5856 29.5997 74.5856 44ZM48.5116 67.7037C61.6028 67.7037 72.2153 57.0912 72.2153 44C72.2153 30.9088 61.6028 20.2963 48.5116 20.2963C35.4204 20.2963 24.8079 30.9088 24.8079 44C24.8079 57.0912 35.4204 67.7037 48.5116 67.7037Z" fill="#E89B05"/>
<path fill-rule="evenodd" clip-rule="evenodd" d="M48.5118 64.1482C59.6393 64.1482 68.6599 55.1276 68.6599 44C68.6599 43.3455 69.1905 42.8148 69.8451 42.8148C70.4997 42.8148 71.0303 43.3455 71.0303 44C71.0303 56.4367 60.9484 66.5186 48.5118 66.5186C47.8572 66.5186 47.3266 65.9879 47.3266 65.3334C47.3266 64.6788 47.8572 64.1482 48.5118 64.1482Z" fill="#ECC704"/>
<path fill-rule="evenodd" clip-rule="evenodd" d="M48.5117 23.8519C37.3842 23.8519 28.3635 32.8725 28.3635 44C28.3635 44.6546 27.8329 45.1852 27.1783 45.1852C26.5238 45.1852 25.9932 44.6546 25.9932 44C25.9932 31.5634 36.075 21.4815 48.5117 21.4815C49.1662 21.4815 49.6969 22.0121 49.6969 22.6667C49.6969 23.3213 49.1662 23.8519 48.5117 23.8519Z" fill="#FFEF9C"/>
<path d="M12.2877 75.5528L9.23489 69.4472C8.90244 68.7823 9.38593 68 10.1293 68L23.5113 68C24.0636 68 24.5113 68.4477 24.5113 69L24.5113 83C24.5113 83.5523 24.0636 84 23.5113 84L10.1293 84C9.38592 84 8.90243 83.2177 9.23489 82.5528L12.2877 76.4472C12.4284 76.1657 12.4284 75.8343 12.2877 75.5528Z" fill="#C52229"/>
<path d="M84.7349 75.5528L87.7877 69.4472C88.1201 68.7823 87.6366 68 86.8932 68L73.5113 68C72.959 68 72.5113 68.4477 72.5113 69L72.5113 83C72.5113 83.5523 72.959 84 73.5113 84L86.8932 84C87.6366 84 88.1201 83.2177 87.7877 82.5528L84.7349 76.4472C84.5941 76.1657 84.5941 75.8343 84.7349 75.5528Z" fill="#C52229"/>
<path fill-rule="evenodd" clip-rule="evenodd" d="M10.2756 76L7.44638 70.3416C6.44904 68.347 7.8995 66 10.1297 66L23.5116 66C25.1685 66 26.5116 67.3431 26.5116 69L26.5116 83C26.5116 84.6569 25.1685 86 23.5116 86L10.1297 86C7.8995 86 6.44903 83.653 7.44638 81.6584L10.2756 76ZM10.4986 76.4461C10.4988 76.4465 10.499 76.4468 10.4992 76.4472L11.3936 76L10.4992 76.4472L10.4986 76.4461ZM86.7477 76L89.5769 70.3416C90.5742 68.3469 89.1237 66 86.8936 66L73.5116 66C71.8548 66 70.5116 67.3431 70.5116 69L70.5116 83C70.5116 84.6569 71.8548 86 73.5116 86L86.8936 86C89.1237 86 90.5742 83.6531 89.5769 81.6584L86.7477 76ZM87.788 69.4472L84.7352 75.5528C84.5945 75.8343 84.5945 76.1657 84.7352 76.4472L87.788 82.5528C88.1205 83.2177 87.637 84 86.8936 84L73.5116 84C72.9593 84 72.5116 83.5523 72.5116 83L72.5116 69C72.5116 68.4477 72.9593 68 73.5116 68L86.8936 68C87.637 68 88.1205 68.7823 87.788 69.4472ZM9.23524 69.4472L12.288 75.5528C12.4288 75.8343 12.4288 76.1657 12.288 76.4472L9.23524 82.5528C8.90279 83.2177 9.38628 84 10.1297 84L23.5116 84C24.0639 84 24.5116 83.5523 24.5116 83L24.5116 69C24.5116 68.4477 24.0639 68 23.5116 68L10.1297 68C9.38628 68 8.90279 68.7823 9.23524 69.4472Z" fill="#9B0F15"/>
<path fill-rule="evenodd" clip-rule="evenodd" d="M10.6657 68.9043C10.8488 68.6138 11.1683 68.4375 11.5117 68.4375H15.7617C16.314 68.4375 16.7617 68.8852 16.7617 69.4375C16.7617 69.9898 16.314 70.4375 15.7617 70.4375H13.0985L15.1639 74.756C15.4021 75.2543 15.1914 75.8513 14.6932 76.0896C14.1949 76.3279 13.5979 76.1172 13.3596 75.619L10.6096 69.869C10.4614 69.5591 10.4826 69.1949 10.6657 68.9043Z" fill="#DF3840"/>
<path d="M76.5117 79L76.5117 65C76.5117 64.4477 76.064 64 75.5117 64L21.5117 64C20.9594 64 20.5117 64.4477 20.5117 65L20.5117 79C20.5117 79.5523 20.9594 80 21.5117 80L75.5117 80C76.064 80 76.5117 79.5523 76.5117 79Z" fill="#F1333B"/>
<path fill-rule="evenodd" clip-rule="evenodd" d="M78.5117 65L78.5117 79C78.5117 80.6569 77.1686 82 75.5117 82L21.5117 82C19.8549 82 18.5117 80.6569 18.5117 79L18.5117 65C18.5117 63.3431 19.8549 62 21.5117 62L75.5117 62C77.1686 62 78.5117 63.3431 78.5117 65ZM76.5117 65L76.5117 79C76.5117 79.5523 76.064 80 75.5117 80L21.5117 80C20.9594 80 20.5117 79.5523 20.5117 79L20.5117 65C20.5117 64.4477 20.9594 64 21.5117 64L75.5117 64C76.064 64 76.5117 64.4477 76.5117 65Z" fill="#9B0F15"/>
<path d="M73.7491 72.3798C73.1828 72.3798 72.7238 71.9319 72.7238 71.3795C72.7238 70.827 73.1828 70.3792 73.7491 70.3792C74.3154 70.3792 74.7744 70.827 74.7744 71.3795C74.7744 71.9319 74.3154 72.3798 73.7491 72.3798Z" fill="#DB1B24"/>
<path d="M69.8477 71.9795C69.1433 71.9795 68.5723 71.4224 68.5723 70.7352C68.5723 70.048 69.1433 69.491 69.8477 69.491C70.552 69.491 71.123 70.048 71.123 70.7352C71.123 71.4224 70.552 71.9795 69.8477 71.9795Z" fill="#DB1B24"/>
<path d="M71.5859 74.8244C71.2338 74.8244 70.9482 74.5458 70.9482 74.2022C70.9482 73.8586 71.2338 73.5801 71.5859 73.5801C71.9381 73.5801 72.2236 73.8586 72.2236 74.2022C72.2236 74.5458 71.9381 74.8244 71.5859 74.8244Z" fill="#DB1B24"/>
<path d="M70.4854 68.2443C70.1332 68.2443 69.8477 67.9657 69.8477 67.6221C69.8477 67.2785 70.1332 67 70.4854 67C70.8375 67 71.123 67.2785 71.123 67.6221C71.123 67.9657 70.8375 68.2443 70.4854 68.2443Z" fill="#DB1B24"/>
<path d="M67.1348 74.2022C66.7826 74.2022 66.4971 73.9237 66.4971 73.5801C66.4971 73.2365 66.7826 72.9579 67.1348 72.9579C67.487 72.9579 67.7725 73.2365 67.7725 73.5801C67.7725 73.9237 67.487 74.2022 67.1348 74.2022Z" fill="#DB1B24"/>
<path d="M66.4971 71.0013C66.1449 71.0013 65.8594 70.7228 65.8594 70.3792C65.8594 70.0356 66.1449 69.757 66.4971 69.757C66.8493 69.757 67.1348 70.0356 67.1348 70.3792C67.1348 70.7228 66.8493 71.0013 66.4971 71.0013Z" fill="#DB1B24"/>
<path d="M62.1494 78.2181C61.7972 78.2181 61.5117 77.9396 61.5117 77.596C61.5117 77.2524 61.7972 76.9738 62.1494 76.9738C62.5016 76.9738 62.7871 77.2524 62.7871 77.596C62.7871 77.9396 62.5016 78.2181 62.1494 78.2181Z" fill="#DB1B24"/>
<path d="M74.8369 75.8431C74.4847 75.8431 74.1992 75.5646 74.1992 75.221C74.1992 74.8774 74.4847 74.5988 74.8369 74.5988C75.1891 74.5988 75.4746 74.8774 75.4746 75.221C75.4746 75.5646 75.1891 75.8431 74.8369 75.8431Z" fill="#DB1B24"/>
<path d="M68.8098 77.2056C68.2367 77.2056 67.772 76.7523 67.772 76.1931C67.772 75.6339 68.2367 75.1806 68.8098 75.1806C69.383 75.1806 69.8477 75.6339 69.8477 76.1931C69.8477 76.7523 69.383 77.2056 68.8098 77.2056Z" fill="#DB1B24"/>
<path d="M73.261 78.2181C72.6878 78.2181 72.2232 77.7647 72.2232 77.2056C72.2232 76.6464 72.6878 76.1931 73.261 76.1931C73.8342 76.1931 74.2988 76.6464 74.2988 77.2056C74.2988 77.7647 73.8342 78.2181 73.261 78.2181Z" fill="#DB1B24"/>
<path d="M64.1839 76.2273C63.6107 76.2273 63.1461 75.774 63.1461 75.2148C63.1461 74.6556 63.6107 74.2023 64.1839 74.2023C64.757 74.2023 65.2217 74.6556 65.2217 75.2148C65.2217 75.774 64.757 76.2273 64.1839 76.2273Z" fill="#DB1B24"/>
<path d="M65.8594 78.5255C65.5072 78.5255 65.2217 78.247 65.2217 77.9034C65.2217 77.5598 65.5072 77.2812 65.8594 77.2812C66.2116 77.2812 66.4971 77.5598 66.4971 77.9034C66.4971 78.247 66.2116 78.5255 65.8594 78.5255Z" fill="#DB1B24"/>
<path fill-rule="evenodd" clip-rule="evenodd" d="M21.1367 65.4375C21.1367 64.8852 21.5844 64.4375 22.1367 64.4375H59.6367C60.189 64.4375 60.6367 64.8852 60.6367 65.4375C60.6367 65.9898 60.189 66.4375 59.6367 66.4375H23.1367V73.4375C23.1367 73.9898 22.689 74.4375 22.1367 74.4375C21.5844 74.4375 21.1367 73.9898 21.1367 73.4375V65.4375Z" fill="#FE666D"/>
<path d="M51.0757 52.5926H47.4382V38.5709L43.0957 39.9177V36.9598L50.6855 34.241H51.0757V52.5926Z" fill="#FFEF9C"/>
<path fill-rule="evenodd" clip-rule="evenodd" d="M53.2236 52.5926C53.2236 53.779 52.2618 54.7408 51.0754 54.7408H47.4379C46.2515 54.7408 45.2897 53.779 45.2897 52.5926V41.4862L43.7317 41.9694C43.0798 42.1716 42.3706 42.052 41.8211 41.6471C41.2716 41.2422 40.9473 40.6002 40.9473 39.9177V36.9598C40.9473 36.0527 41.517 35.2434 42.371 34.9375L49.9608 32.2187C50.1933 32.1355 50.4384 32.0929 50.6853 32.0929H51.0754C52.2618 32.0929 53.2236 33.0547 53.2236 34.241V52.5926ZM47.4379 38.5709V52.5926H51.0754V34.241H50.6853L43.0954 36.9598V39.9177L47.4379 38.5709Z" fill="#E89B05"/>
</svg>
