<svg width="97" height="96" viewBox="0 0 97 96" fill="none" xmlns="http://www.w3.org/2000/svg">
<path d="M80.1741 44C80.1741 61.6731 65.9715 76 48.4518 76C30.932 76 16.7295 61.6731 16.7295 44C16.7295 26.3269 30.932 12 48.4518 12C65.9715 12 80.1741 26.3269 80.1741 44Z" fill="#DCA16A"/>
<path fill-rule="evenodd" clip-rule="evenodd" d="M82.5241 44C82.5241 62.9822 67.2695 78.3704 48.452 78.3704C29.6345 78.3704 14.3799 62.9822 14.3799 44C14.3799 25.0178 29.6345 9.62964 48.452 9.62964C67.2695 9.62964 82.5241 25.0178 82.5241 44ZM48.452 76C65.9717 76 80.1743 61.6731 80.1743 44C80.1743 26.3269 65.9717 12 48.452 12C30.9322 12 16.7297 26.3269 16.7297 44C16.7297 61.6731 30.9322 76 48.452 76Z" fill="#C38144"/>
<path fill-rule="evenodd" clip-rule="evenodd" d="M19.0796 45.1852C18.4307 45.1852 17.9047 44.6546 17.9047 44C17.9047 26.9814 31.5812 13.1852 48.4521 13.1852C49.1009 13.1852 49.627 13.7158 49.627 14.3704C49.627 15.0249 49.1009 15.5556 48.4521 15.5556C32.879 15.5556 20.2545 28.2906 20.2545 44C20.2545 44.6546 19.7284 45.1852 19.0796 45.1852Z" fill="#F0B57F"/>
<path fill-rule="evenodd" clip-rule="evenodd" d="M77.8247 42.8148C78.4736 42.8148 78.9996 43.3454 78.9996 44C78.9996 61.0186 65.3231 74.8148 48.4522 74.8148C47.8034 74.8148 47.2773 74.2842 47.2773 73.6296C47.2773 72.9751 47.8034 72.4444 48.4522 72.4444C64.0253 72.4444 76.6498 59.7094 76.6498 44C76.6498 43.3454 77.1759 42.8148 77.8247 42.8148Z" fill="#CF945D"/>
<path d="M71.9501 44C71.9501 57.0912 61.4297 67.7037 48.4521 67.7037C35.4745 67.7037 24.9541 57.0912 24.9541 44C24.9541 30.9088 35.4745 20.2963 48.4521 20.2963C61.4297 20.2963 71.9501 30.9088 71.9501 44Z" fill="#F7BA82"/>
<path fill-rule="evenodd" clip-rule="evenodd" d="M74.2991 44C74.2991 58.4003 62.7267 70.0741 48.4513 70.0741C34.176 70.0741 22.6035 58.4003 22.6035 44C22.6035 29.5997 34.176 17.9259 48.4513 17.9259C62.7267 17.9259 74.2991 29.5997 74.2991 44ZM48.4513 67.7037C61.4289 67.7037 71.9493 57.0912 71.9493 44C71.9493 30.9088 61.4289 20.2963 48.4513 20.2963C35.4737 20.2963 24.9533 30.9088 24.9533 44C24.9533 57.0912 35.4737 67.7037 48.4513 67.7037Z" fill="#C38144"/>
<path fill-rule="evenodd" clip-rule="evenodd" d="M48.4513 64.1481C59.4823 64.1481 68.4246 55.1275 68.4246 44C68.4246 43.3454 68.9506 42.8148 69.5995 42.8148C70.2484 42.8148 70.7744 43.3454 70.7744 44C70.7744 56.4366 60.78 66.5185 48.4513 66.5185C47.8024 66.5185 47.2764 65.9879 47.2764 65.3333C47.2764 64.6787 47.8024 64.1481 48.4513 64.1481Z" fill="#E6A66C"/>
<path fill-rule="evenodd" clip-rule="evenodd" d="M48.452 23.8519C37.4211 23.8519 28.4787 32.8725 28.4787 44C28.4787 44.6546 27.9527 45.1852 27.3038 45.1852C26.6549 45.1852 26.1289 44.6546 26.1289 44C26.1289 31.5634 36.1233 21.4815 48.452 21.4815C49.1009 21.4815 49.6269 22.0121 49.6269 22.6667C49.6269 23.3213 49.1009 23.8519 48.452 23.8519Z" fill="#FFD5AE"/>
<path d="M12.5424 75.5528L9.51614 69.4472C9.18657 68.7823 9.66586 68 10.4028 68L23.6686 68C24.2161 68 24.66 68.4477 24.66 69L24.66 83C24.66 83.5523 24.2161 84 23.6686 84L10.4028 84C9.66586 84 9.18657 83.2177 9.51614 82.5528L12.5424 76.4472C12.682 76.1657 12.682 75.8343 12.5424 75.5528Z" fill="#C52229"/>
<path d="M84.3609 75.5528L87.3872 69.4472C87.7168 68.7823 87.2375 68 86.5006 68L73.2347 68C72.6872 68 72.2434 68.4477 72.2434 69L72.2434 83C72.2434 83.5523 72.6872 84 73.2347 84L86.5006 84C87.2375 84 87.7168 83.2177 87.3872 82.5528L84.3609 76.4472C84.2214 76.1657 84.2214 75.8343 84.3609 75.5528Z" fill="#C52229"/>
<path fill-rule="evenodd" clip-rule="evenodd" d="M10.5476 76L7.74297 70.3416C6.75427 68.347 8.19215 66 10.403 66L23.6688 66C25.3113 66 26.6428 67.3431 26.6428 69L26.6428 83C26.6428 84.6569 25.3113 86 23.6688 86L10.403 86C8.19215 86 6.75427 83.653 7.74297 81.6584L10.5476 76ZM10.7687 76.4461C10.7689 76.4465 10.7691 76.4468 10.7693 76.4472L11.6559 76L10.7692 76.4472L10.7687 76.4461ZM86.3561 76L89.1607 70.3416C90.1494 68.3469 88.7115 66 86.5007 66L73.2349 66C71.5924 66 70.2609 67.3431 70.2609 69L70.2609 83C70.2609 84.6569 71.5924 86 73.2349 86L86.5007 86C88.7115 86 90.1494 83.6531 89.1607 81.6584L86.3561 76ZM87.3874 69.4472L84.3611 75.5528C84.2215 75.8343 84.2215 76.1657 84.3611 76.4472L87.3874 82.5528C87.7169 83.2177 87.2376 84 86.5007 84L73.2349 84C72.6874 84 72.2436 83.5523 72.2436 83L72.2436 69C72.2436 68.4477 72.6874 68 73.2349 68L86.5007 68C87.2376 68 87.7169 68.7823 87.3874 69.4472ZM9.5163 69.4472L12.5426 75.5528C12.6821 75.8343 12.6821 76.1657 12.5426 76.4472L9.5163 82.5528C9.18673 83.2177 9.66602 84 10.403 84L23.6688 84C24.2163 84 24.6601 83.5523 24.6601 83L24.6601 69C24.6601 68.4477 24.2163 68 23.6688 68L10.403 68C9.66602 68 9.18673 68.7823 9.5163 69.4472Z" fill="#9B0F15"/>
<path fill-rule="evenodd" clip-rule="evenodd" d="M10.9339 68.9043C11.1154 68.6138 11.4321 68.4375 11.7726 68.4375H15.9857C16.5332 68.4375 16.977 68.8852 16.977 69.4375C16.977 69.9898 16.5332 70.4375 15.9857 70.4375H13.3455L15.393 74.756C15.6292 75.2543 15.4203 75.8513 14.9264 76.0896C14.4325 76.3279 13.8406 76.1172 13.6044 75.619L10.8783 69.869C10.7314 69.5591 10.7524 69.1949 10.9339 68.9043Z" fill="#DF3840"/>
<path d="M76.209 79L76.209 65C76.209 64.4477 75.7652 64 75.2177 64L21.6863 64C21.1388 64 20.695 64.4477 20.695 65L20.695 79C20.695 79.5523 21.1388 80 21.6863 80L75.2177 80C75.7652 80 76.209 79.5523 76.209 79Z" fill="#F1333B"/>
<path fill-rule="evenodd" clip-rule="evenodd" d="M78.1914 65L78.1914 79C78.1914 80.6569 76.8599 82 75.2174 82L21.6861 82C20.0436 82 18.7121 80.6569 18.7121 79L18.7121 65C18.7121 63.3431 20.0436 62 21.6861 62L75.2174 62C76.8599 62 78.1914 63.3431 78.1914 65ZM76.2088 65L76.2088 79C76.2088 79.5523 75.7649 80 75.2174 80L21.6861 80C21.1386 80 20.6947 79.5523 20.6947 79L20.6947 65C20.6947 64.4477 21.1386 64 21.6861 64L75.2174 64C75.7649 64 76.2088 64.4477 76.2088 65Z" fill="#9B0F15"/>
<path d="M73.4699 72.3798C72.9086 72.3798 72.4535 71.9319 72.4535 71.3795C72.4535 70.827 72.9086 70.3792 73.4699 70.3792C74.0313 70.3792 74.4863 70.827 74.4863 71.3795C74.4863 71.9319 74.0313 72.3798 73.4699 72.3798Z" fill="#DB1B24"/>
<path d="M69.6029 71.9795C68.9046 71.9795 68.3386 71.4224 68.3386 70.7352C68.3386 70.048 68.9046 69.491 69.6029 69.491C70.3011 69.491 70.8672 70.048 70.8672 70.7352C70.8672 71.4224 70.3011 71.9795 69.6029 71.9795Z" fill="#DB1B24"/>
<path d="M71.3258 74.8244C70.9767 74.8244 70.6937 74.5458 70.6937 74.2022C70.6937 73.8586 70.9767 73.5801 71.3258 73.5801C71.675 73.5801 71.958 73.8586 71.958 74.2022C71.958 74.5458 71.675 74.8244 71.3258 74.8244Z" fill="#DB1B24"/>
<path d="M70.235 68.2443C69.8859 68.2443 69.6029 67.9657 69.6029 67.6221C69.6029 67.2785 69.8859 67 70.235 67C70.5842 67 70.8672 67.2785 70.8672 67.6221C70.8672 67.9657 70.5842 68.2443 70.235 68.2443Z" fill="#DB1B24"/>
<path d="M66.9128 74.2022C66.5636 74.2022 66.2806 73.9237 66.2806 73.5801C66.2806 73.2365 66.5636 72.9579 66.9128 72.9579C67.2619 72.9579 67.5449 73.2365 67.5449 73.5801C67.5449 73.9237 67.2619 74.2022 66.9128 74.2022Z" fill="#DB1B24"/>
<path d="M66.2809 71.0013C65.9318 71.0013 65.6488 70.7228 65.6488 70.3792C65.6488 70.0356 65.9318 69.757 66.2809 69.757C66.6301 69.757 66.9131 70.0356 66.9131 70.3792C66.9131 70.7228 66.6301 71.0013 66.2809 71.0013Z" fill="#DB1B24"/>
<path d="M61.9714 78.2181C61.6222 78.2181 61.3392 77.9396 61.3392 77.596C61.3392 77.2524 61.6222 76.9738 61.9714 76.9738C62.3205 76.9738 62.6035 77.2524 62.6035 77.596C62.6035 77.9396 62.3205 78.2181 61.9714 78.2181Z" fill="#DB1B24"/>
<path d="M74.5485 75.8431C74.1994 75.8431 73.9164 75.5646 73.9164 75.221C73.9164 74.8774 74.1994 74.5988 74.5485 74.5988C74.8976 74.5988 75.1807 74.8774 75.1807 75.221C75.1807 75.5646 74.8976 75.8431 74.5485 75.8431Z" fill="#DB1B24"/>
<path d="M68.5737 77.2056C68.0055 77.2056 67.5449 76.7523 67.5449 76.1931C67.5449 75.6339 68.0055 75.1806 68.5737 75.1806C69.1419 75.1806 69.6025 75.6339 69.6025 76.1931C69.6025 76.7523 69.1419 77.2056 68.5737 77.2056Z" fill="#DB1B24"/>
<path d="M72.9868 78.2181C72.4186 78.2181 71.958 77.7647 71.958 77.2056C71.958 76.6464 72.4186 76.1931 72.9868 76.1931C73.555 76.1931 74.0156 76.6464 74.0156 77.2056C74.0156 77.7647 73.555 78.2181 72.9868 78.2181Z" fill="#DB1B24"/>
<path d="M63.9878 76.2273C63.4196 76.2273 62.959 75.774 62.959 75.2148C62.959 74.6556 63.4196 74.2023 63.9878 74.2023C64.556 74.2023 65.0166 74.6556 65.0166 75.2148C65.0166 75.774 64.556 76.2273 63.9878 76.2273Z" fill="#DB1B24"/>
<path d="M65.6491 78.5255C65.3 78.5255 65.0169 78.247 65.0169 77.9034C65.0169 77.5598 65.3 77.2812 65.6491 77.2812C65.9982 77.2812 66.2812 77.5598 66.2812 77.9034C66.2812 78.247 65.9982 78.5255 65.6491 78.5255Z" fill="#DB1B24"/>
<path fill-rule="evenodd" clip-rule="evenodd" d="M21.3145 65.4375C21.3145 64.8852 21.7583 64.4375 22.3058 64.4375H59.4803C60.0278 64.4375 60.4717 64.8852 60.4717 65.4375C60.4717 65.9898 60.0278 66.4375 59.4803 66.4375H23.2971V73.4375C23.2971 73.9898 22.8533 74.4375 22.3058 74.4375C21.7583 74.4375 21.3145 73.9898 21.3145 73.4375V65.4375Z" fill="#FE666D"/>
<path d="M45.902 41.8183H47.8235C48.7386 41.8183 49.4165 41.5875 49.8574 41.126C50.2983 40.6645 50.5187 40.0519 50.5187 39.2883C50.5187 38.5499 50.2983 37.9751 49.8574 37.5639C49.4248 37.1528 48.8259 36.9472 48.0606 36.9472C47.3702 36.9472 46.7921 37.1402 46.3262 37.5262C45.8604 37.9038 45.6275 38.3989 45.6275 39.0114H42.0215C42.0215 38.0548 42.2752 37.1989 42.7826 36.4437C43.2983 35.6801 44.0137 35.0843 44.9287 34.6564C45.8521 34.2284 46.8669 34.0145 47.9733 34.0145C49.8948 34.0145 51.4004 34.4802 52.4902 35.4116C53.5799 36.3346 54.1247 37.6101 54.1247 39.238C54.1247 40.0771 53.871 40.8491 53.3636 41.554C52.8562 42.2588 52.1907 42.8001 51.3672 43.1777C52.3903 43.5469 53.1515 44.1007 53.6506 44.8391C54.158 45.5775 54.4117 46.4502 54.4117 47.4572C54.4117 49.0851 53.8211 50.3899 52.6399 51.3717C51.467 52.3534 49.9115 52.8443 47.9733 52.8443C46.1599 52.8443 44.675 52.3618 43.5188 51.3968C42.3708 50.4319 41.7969 49.1564 41.7969 47.5705H45.4029C45.4029 48.2585 45.6566 48.8207 46.164 49.2571C46.6798 49.6934 47.312 49.9116 48.0606 49.9116C48.9174 49.9116 49.587 49.685 50.0695 49.2319C50.5603 48.7704 50.8057 48.162 50.8057 47.4068C50.8057 45.5775 49.8075 44.6629 47.8111 44.6629H45.902V41.8183Z" fill="#FFD5AE"/>
<path fill-rule="evenodd" clip-rule="evenodd" d="M43.8741 41.1596H42.0211C40.845 41.1596 39.8916 40.1978 39.8916 39.0114C39.8916 37.6472 40.2611 36.3672 41.0195 35.2385L41.0224 35.2342C41.7762 34.1181 42.805 33.2817 44.0326 32.7075L44.0393 32.7044C45.2655 32.1361 46.5872 31.8663 47.9729 31.8663C50.2219 31.8663 52.2737 32.4132 53.8628 33.7696C55.4999 35.1582 56.2538 37.0724 56.2538 39.238C56.2538 40.5487 55.8471 41.7594 55.0863 42.8162C55.0371 42.8846 54.9868 42.9519 54.9355 43.0181C55.103 43.207 55.2599 43.4081 55.4049 43.622C56.1855 44.761 56.5408 46.0705 56.5408 47.4572C56.5408 49.6854 55.6967 51.6126 53.9967 53.0271C52.3478 54.406 50.2685 54.9925 47.9729 54.9925C45.7712 54.9925 43.7743 54.3984 42.1609 53.052L42.1551 53.0471C40.4934 51.6502 39.667 49.7558 39.667 47.5705C39.667 46.3841 40.6204 45.4223 41.7965 45.4223H43.909C43.8205 45.1862 43.7721 44.9303 43.7721 44.6629V41.8183C43.7721 41.5885 43.8079 41.3672 43.8741 41.1596ZM47.3951 46.8111C47.4836 47.0472 47.532 47.3031 47.532 47.5705C47.532 47.5884 47.5328 47.6021 47.5337 47.6121C47.5354 47.6137 47.5373 47.6155 47.5394 47.6173C47.6281 47.6904 47.7605 47.7635 48.0602 47.7635C48.3058 47.7635 48.4521 47.7307 48.5279 47.7051C48.591 47.6837 48.6117 47.6657 48.6171 47.6606M47.3951 46.8111H47.8107C48.3399 46.8111 48.5556 46.9029 48.6145 46.9347C48.6159 46.938 48.6173 46.9419 48.619 46.9464C48.6389 47.0012 48.6758 47.141 48.6758 47.4068C48.6758 47.5481 48.6534 47.6084 48.6488 47.6199C48.6459 47.627 48.6438 47.6305 48.6418 47.6334C48.6398 47.6364 48.6326 47.6459 48.6171 47.6606M52.6395 51.3717C53.8207 50.3899 54.4113 49.0851 54.4113 47.4572C54.4113 46.4502 54.1576 45.5776 53.6502 44.8391C53.568 44.7176 53.4788 44.601 53.3824 44.4894C52.8934 43.9234 52.2215 43.4861 51.3668 43.1777C52.137 42.8245 52.769 42.3282 53.2628 41.6887C53.2969 41.6445 53.3304 41.5996 53.3632 41.554C53.8706 40.8491 54.1243 40.0771 54.1243 39.238C54.1243 37.6101 53.5795 36.3346 52.4898 35.4116C51.4001 34.4802 49.8944 34.0145 47.9729 34.0145C46.8666 34.0145 45.8517 34.2285 44.9284 34.6564C44.0133 35.0844 43.298 35.6801 42.7822 36.4437C42.6905 36.5803 42.607 36.7201 42.5318 36.8633C42.1913 37.5118 42.0211 38.2278 42.0211 39.0114H45.6271C45.6271 38.3989 45.86 37.9038 46.3259 37.5262C46.7917 37.1402 47.3698 36.9472 48.0602 36.9472C48.8255 36.9472 49.4245 37.1528 49.857 37.564C50.2979 37.9751 50.5183 38.5499 50.5183 39.2884C50.5183 40.052 50.2979 40.6645 49.857 41.126C49.4161 41.5875 48.7382 41.8183 47.8232 41.8183H45.9016V44.6629H47.8107C49.8071 44.6629 50.8053 45.5776 50.8053 47.4068C50.8053 48.1621 50.5599 48.7704 50.0691 49.2319C49.5867 49.6851 48.917 49.9116 48.0602 49.9116C47.3116 49.9116 46.6794 49.6934 46.1636 49.2571C45.6562 48.8208 45.4025 48.2586 45.4025 47.5705H41.7965C41.7965 48.3643 41.9403 49.0804 42.2279 49.7186C42.5149 50.3555 42.9451 50.9149 43.5184 51.3969C44.6747 52.3618 46.1595 52.8443 47.9729 52.8443C49.9111 52.8443 51.4666 52.3535 52.6395 51.3717ZM47.6546 39.6702C47.7083 39.5018 47.742 39.3244 47.7528 39.1407C47.8091 39.1173 47.9023 39.0954 48.0602 39.0954C48.23 39.0954 48.3298 39.1153 48.3782 39.1291C48.3836 39.1628 48.3888 39.2146 48.3888 39.2884C48.3888 39.4622 48.3638 39.5527 48.3513 39.5875C48.3483 39.5957 48.3456 39.6023 48.343 39.6078C48.3411 39.6084 48.3391 39.6091 48.3371 39.6098C48.2689 39.633 48.1105 39.6702 47.8232 39.6702H47.6546Z" fill="#C28044"/>
</svg>
