<svg width="18" height="20" viewBox="0 0 18 20" fill="none" xmlns="http://www.w3.org/2000/svg">
    <path d="M1.05 20H16.95C17.5266 20 18 19.558 18 19.0134V9.55357C18 9.00893 17.5312 8.57143 16.95 8.57143H15.9375V7.19196C15.9375 5.33929 15.1781 3.28125 13.9406 2.04018C12.7078 0.799107 10.9406 0 9.00469 0H9H8.99531C7.05937 0 5.29219 0.799107 4.05938 2.03571C2.82188 3.27679 2.0625 5.33482 2.0625 7.1875V8.57143H1.05C0.46875 8.57143 0 9.01339 0 9.55357V19.0134C0 19.558 0.46875 20 1.05 20ZM4.54688 7.19196C4.54688 5.97321 5.01094 4.46429 5.86406 3.60714V3.59375C6.68906 2.76339 7.82812 2.27679 8.99531 2.27679H9.00469C10.1719 2.27679 11.3109 2.76339 12.1359 3.59375V3.60268L12.1312 3.60714C12.9891 4.46429 13.4484 5.97321 13.4484 7.19196V8.57143H4.54688V7.19196Z" fill="white"/>
</svg>
