<svg width="18" height="13" viewBox="0 0 18 13" fill="none" xmlns="http://www.w3.org/2000/svg">
    <path fill-rule="evenodd" clip-rule="evenodd" d="M12.7319 7.41809C13.8451 8.17372 14.6251 9.19747 14.6251 10.5625V13H17.8751V10.5625C17.8751 8.79122 14.9744 7.74309 12.7319 7.41809Z" fill="white"/>
    <path d="M6.5 6.5C8.29493 6.5 9.75 5.04493 9.75 3.25C9.75 1.45507 8.29493 0 6.5 0C4.70507 0 3.25 1.45507 3.25 3.25C3.25 5.04493 4.70507 6.5 6.5 6.5Z" fill="white"/>
    <path fill-rule="evenodd" clip-rule="evenodd" d="M11.3751 6.5C13.1707 6.5 14.6251 5.04563 14.6251 3.25C14.6251 1.45438 13.1707 0 11.3751 0C10.9932 0 10.6357 0.0812498 10.2944 0.195C10.9688 1.03187 11.3751 2.09625 11.3751 3.25C11.3751 4.40375 10.9688 5.46813 10.2944 6.305C10.6357 6.41875 10.9932 6.5 11.3751 6.5Z" fill="white"/>
    <path fill-rule="evenodd" clip-rule="evenodd" d="M6.5 7.3125C4.33063 7.3125 0 8.40125 0 10.5625V13H13V10.5625C13 8.40125 8.66937 7.3125 6.5 7.3125Z" fill="white"/>
</svg>
